<svg id="svg" version="1.1" xmlns="http://www.w3.org/2000/svg" xmlns:xlink="http://www.w3.org/1999/xlink" width="400" height="400" viewBox="0, 0, 400,400"><g id="svgg"><path id="path0" d="M178.300 0.274 C 176.375 0.361,174.800 0.604,174.800 0.816 C 174.800 1.027,173.551 1.200,172.024 1.200 C 170.497 1.200,169.136 1.380,169.000 1.600 C 168.864 1.820,167.773 2.000,166.576 2.000 C 165.379 2.000,164.400 2.180,164.400 2.400 C 164.400 2.620,163.410 2.800,162.200 2.800 C 160.990 2.800,160.000 2.980,160.000 3.200 C 160.000 3.420,159.201 3.600,158.224 3.600 C 157.247 3.600,156.336 3.780,156.200 4.000 C 156.064 4.220,155.243 4.400,154.376 4.400 C 153.509 4.400,152.800 4.580,152.800 4.800 C 152.800 5.020,152.080 5.200,151.200 5.200 C 150.320 5.200,149.600 5.380,149.600 5.600 C 149.600 5.820,148.981 6.000,148.224 6.000 C 147.467 6.000,146.736 6.180,146.600 6.400 C 146.464 6.620,145.823 6.800,145.176 6.800 C 144.529 6.800,144.000 6.980,144.000 7.200 C 144.000 7.420,143.370 7.600,142.600 7.600 C 141.830 7.600,141.200 7.780,141.200 8.000 C 141.200 8.220,140.771 8.400,140.246 8.400 C 139.355 8.400,136.018 9.285,134.200 10.003 C 133.760 10.177,132.770 10.536,132.000 10.800 C 130.307 11.382,128.840 11.971,127.905 12.447 C 127.523 12.641,126.848 12.800,126.405 12.800 C 125.962 12.800,125.600 12.980,125.600 13.200 C 125.600 13.420,125.240 13.600,124.800 13.600 C 124.360 13.600,124.000 13.780,124.000 14.000 C 124.000 14.220,123.561 14.400,123.024 14.400 C 122.487 14.400,121.936 14.580,121.800 14.800 C 121.664 15.020,121.203 15.200,120.776 15.200 C 120.349 15.200,120.000 15.380,120.000 15.600 C 120.000 15.820,119.640 16.000,119.200 16.000 C 118.760 16.000,118.400 16.180,118.400 16.400 C 118.400 16.620,118.128 16.800,117.795 16.800 C 117.462 16.800,116.877 16.971,116.495 17.180 C 116.113 17.389,114.180 18.325,112.200 19.261 C 110.220 20.196,108.540 21.105,108.467 21.281 C 108.393 21.456,107.988 21.600,107.567 21.600 C 107.145 21.600,106.800 21.780,106.800 22.000 C 106.800 22.220,106.440 22.400,106.000 22.400 C 105.560 22.400,105.200 22.580,105.200 22.800 C 105.200 23.020,104.930 23.200,104.600 23.200 C 104.270 23.200,104.000 23.380,104.000 23.600 C 104.000 23.820,103.730 24.000,103.400 24.000 C 103.070 24.000,102.800 24.180,102.800 24.400 C 102.800 24.620,102.509 24.800,102.154 24.800 C 101.442 24.800,97.707 26.709,96.871 27.500 C 96.581 27.775,96.189 28.000,96.000 28.000 C 95.811 28.000,95.419 28.225,95.129 28.500 C 94.838 28.775,94.060 29.269,93.400 29.597 C 92.740 29.926,91.909 30.511,91.553 30.897 C 91.197 31.284,90.652 31.600,90.341 31.600 C 90.031 31.600,89.517 31.960,89.200 32.400 C 88.883 32.840,88.343 33.200,88.000 33.200 C 87.657 33.200,87.117 33.560,86.800 34.000 C 86.483 34.440,85.991 34.800,85.708 34.800 C 85.425 34.800,84.628 35.340,83.937 36.000 C 83.246 36.660,82.478 37.200,82.229 37.200 C 81.980 37.200,81.517 37.560,81.200 38.000 C 80.883 38.440,80.395 38.800,80.115 38.800 C 79.836 38.800,79.091 39.340,78.460 40.000 C 77.829 40.660,77.190 41.200,77.040 41.200 C 76.753 41.200,76.369 41.500,74.349 43.300 C 73.671 43.905,72.966 44.400,72.784 44.400 C 72.602 44.400,71.562 45.255,70.473 46.300 C 68.197 48.485,66.881 49.600,66.581 49.600 C 66.466 49.600,64.573 51.445,62.373 53.700 C 57.577 58.617,58.623 57.571,53.793 62.287 C 51.590 64.439,49.342 66.830,48.799 67.600 C 48.255 68.370,47.043 69.770,46.105 70.711 C 45.167 71.651,44.400 72.577,44.400 72.768 C 44.400 72.959,43.860 73.693,43.200 74.400 C 42.540 75.107,42.000 75.824,42.000 75.994 C 42.000 76.164,41.280 77.045,40.400 77.952 C 39.520 78.859,38.800 79.831,38.800 80.112 C 38.800 80.393,38.440 80.883,38.000 81.200 C 37.560 81.517,37.200 81.980,37.200 82.229 C 37.200 82.478,36.660 83.246,36.000 83.937 C 35.340 84.628,34.800 85.425,34.800 85.708 C 34.800 85.991,34.440 86.483,34.000 86.800 C 33.560 87.117,33.200 87.657,33.200 88.000 C 33.200 88.343,32.840 88.883,32.400 89.200 C 31.960 89.517,31.600 90.031,31.600 90.341 C 31.600 90.652,31.284 91.197,30.897 91.553 C 30.511 91.909,29.926 92.740,29.597 93.400 C 29.269 94.060,28.685 94.949,28.300 95.375 C 27.915 95.802,27.600 96.372,27.600 96.642 C 27.600 96.912,27.465 97.193,27.300 97.267 C 26.826 97.477,24.800 101.438,24.800 102.154 C 24.800 102.509,24.648 102.800,24.463 102.800 C 24.277 102.800,23.692 103.655,23.163 104.700 C 22.633 105.745,22.065 106.660,21.900 106.733 C 21.735 106.807,21.600 107.197,21.600 107.600 C 21.600 108.003,21.463 108.393,21.296 108.467 C 20.888 108.646,17.593 115.267,17.597 115.900 C 17.599 116.175,17.420 116.400,17.200 116.400 C 16.980 116.400,16.800 116.850,16.800 117.400 C 16.800 117.950,16.620 118.400,16.400 118.400 C 16.180 118.400,16.000 118.760,16.000 119.200 C 16.000 119.640,15.853 120.000,15.672 120.000 C 15.492 120.000,15.100 120.900,14.800 122.000 C 14.500 123.100,14.108 124.000,13.928 124.000 C 13.747 124.000,13.600 124.360,13.600 124.800 C 13.600 125.240,13.420 125.600,13.200 125.600 C 12.980 125.600,12.800 125.962,12.800 126.405 C 12.800 126.848,12.641 127.523,12.447 127.905 C 11.971 128.840,11.382 130.307,10.800 132.000 C 10.536 132.770,10.177 133.760,10.003 134.200 C 9.285 136.018,8.400 139.355,8.400 140.246 C 8.400 140.771,8.220 141.200,8.000 141.200 C 7.780 141.200,7.600 141.830,7.600 142.600 C 7.600 143.370,7.420 144.000,7.200 144.000 C 6.980 144.000,6.800 144.529,6.800 145.176 C 6.800 145.823,6.620 146.464,6.400 146.600 C 6.180 146.736,6.000 147.467,6.000 148.224 C 6.000 148.981,5.820 149.600,5.600 149.600 C 5.380 149.600,5.200 150.320,5.200 151.200 C 5.200 152.080,5.020 152.800,4.800 152.800 C 4.580 152.800,4.400 153.509,4.400 154.376 C 4.400 155.243,4.220 156.064,4.000 156.200 C 3.780 156.336,3.600 157.247,3.600 158.224 C 3.600 159.201,3.420 160.000,3.200 160.000 C 2.980 160.000,2.800 160.900,2.800 162.000 C 2.800 163.100,2.620 164.000,2.400 164.000 C 2.178 164.000,2.000 165.059,2.000 166.376 C 2.000 167.683,1.820 168.864,1.600 169.000 C 1.380 169.136,1.200 170.371,1.200 171.744 C 1.200 173.207,0.993 174.447,0.700 174.740 C 0.311 175.129,0.200 180.743,0.200 200.087 C 0.200 219.609,0.307 224.969,0.700 225.100 C 1.036 225.212,1.200 226.176,1.200 228.033 C 1.200 229.611,1.372 230.800,1.600 230.800 C 1.822 230.800,2.000 231.867,2.000 233.200 C 2.000 234.533,2.178 235.600,2.400 235.600 C 2.620 235.600,2.800 236.500,2.800 237.600 C 2.800 238.700,2.980 239.600,3.200 239.600 C 3.420 239.600,3.600 240.410,3.600 241.400 C 3.600 242.390,3.780 243.200,4.000 243.200 C 4.220 243.200,4.400 243.909,4.400 244.776 C 4.400 245.643,4.561 246.452,4.758 246.574 C 4.955 246.695,5.218 247.471,5.342 248.297 C 5.872 251.807,6.108 252.820,6.444 253.027 C 6.640 253.148,6.800 253.867,6.800 254.624 C 6.800 255.381,6.980 256.000,7.200 256.000 C 7.420 256.000,7.600 256.540,7.600 257.200 C 7.600 257.860,7.780 258.400,8.000 258.400 C 8.220 258.400,8.400 258.900,8.400 259.511 C 8.400 261.030,10.349 267.144,11.647 269.695 C 11.841 270.077,12.000 270.656,12.000 270.982 C 12.000 271.309,12.360 272.217,12.800 273.000 C 13.240 273.783,13.600 274.779,13.600 275.212 C 13.600 275.645,13.780 276.000,14.000 276.000 C 14.220 276.000,14.400 276.360,14.400 276.800 C 14.400 277.240,14.580 277.600,14.800 277.600 C 15.020 277.600,15.200 278.140,15.200 278.800 C 15.200 279.460,15.380 280.000,15.600 280.000 C 15.820 280.000,16.000 280.360,16.000 280.800 C 16.000 281.240,16.180 281.600,16.400 281.600 C 16.620 281.600,16.800 281.960,16.800 282.400 C 16.800 282.840,16.980 283.200,17.200 283.200 C 17.420 283.200,17.600 283.549,17.600 283.976 C 17.600 284.403,17.780 284.864,18.000 285.000 C 18.220 285.136,18.400 285.597,18.400 286.024 C 18.400 286.451,18.580 286.800,18.800 286.800 C 19.020 286.800,19.200 287.160,19.200 287.600 C 19.200 288.040,19.335 288.401,19.500 288.403 C 19.859 288.407,20.800 290.344,20.800 291.080 C 20.800 291.366,20.980 291.600,21.200 291.600 C 21.420 291.600,21.600 291.836,21.600 292.125 C 21.600 292.413,21.960 293.036,22.400 293.508 C 22.840 293.980,23.200 294.644,23.200 294.983 C 23.200 295.322,23.380 295.600,23.600 295.600 C 23.820 295.600,24.000 295.960,24.000 296.400 C 24.000 296.840,24.180 297.200,24.400 297.200 C 24.620 297.200,24.800 297.455,24.800 297.768 C 24.800 298.327,25.981 300.810,26.432 301.200 C 26.560 301.310,26.919 301.985,27.230 302.700 C 27.541 303.415,27.931 304.000,28.098 304.000 C 28.264 304.000,28.400 304.270,28.400 304.600 C 28.400 304.930,28.536 305.200,28.702 305.200 C 28.869 305.200,29.229 305.706,29.503 306.325 C 29.776 306.944,30.315 307.799,30.700 308.225 C 31.085 308.651,31.655 309.495,31.968 310.100 C 32.280 310.705,32.685 311.200,32.868 311.200 C 33.050 311.200,33.200 311.436,33.200 311.725 C 33.200 312.013,33.560 312.636,34.000 313.108 C 34.440 313.580,34.800 314.156,34.800 314.387 C 34.800 314.618,35.340 315.372,36.000 316.063 C 36.660 316.754,37.200 317.522,37.200 317.771 C 37.200 318.020,37.560 318.483,38.000 318.800 C 38.440 319.117,38.800 319.580,38.800 319.829 C 38.800 320.078,39.295 320.807,39.900 321.450 C 40.505 322.092,41.530 323.334,42.179 324.209 C 42.827 325.084,43.466 325.890,43.598 326.000 C 43.730 326.110,44.277 326.830,44.813 327.600 C 45.348 328.370,46.330 329.561,46.993 330.247 C 48.495 331.799,49.600 333.144,49.600 333.419 C 49.600 333.534,51.445 335.427,53.700 337.627 C 55.955 339.826,57.954 341.782,58.141 341.972 C 58.329 342.162,60.356 344.226,62.646 346.559 C 64.936 348.891,66.971 350.800,67.169 350.800 C 67.366 350.800,68.558 351.790,69.818 353.000 C 71.077 354.210,72.263 355.200,72.453 355.200 C 72.643 355.200,73.541 355.920,74.448 356.800 C 75.355 357.680,76.247 358.400,76.430 358.400 C 76.614 358.400,77.214 358.850,77.764 359.400 C 78.314 359.950,78.952 360.400,79.182 360.400 C 79.412 360.400,79.600 360.580,79.600 360.800 C 79.600 361.020,79.830 361.200,80.112 361.200 C 80.393 361.200,80.883 361.560,81.200 362.000 C 81.517 362.440,82.009 362.800,82.292 362.800 C 82.575 362.800,83.372 363.340,84.063 364.000 C 84.754 364.660,85.522 365.200,85.771 365.200 C 86.020 365.200,86.483 365.560,86.800 366.000 C 87.117 366.440,87.657 366.800,88.000 366.800 C 88.343 366.800,88.883 367.160,89.200 367.600 C 89.517 368.040,90.082 368.400,90.455 368.400 C 90.828 368.400,91.193 368.535,91.267 368.700 C 91.469 369.155,93.910 370.800,94.384 370.800 C 94.613 370.800,94.800 370.935,94.800 371.101 C 94.800 371.266,95.655 371.843,96.700 372.384 C 97.745 372.924,99.227 373.778,99.993 374.283 C 100.759 374.787,101.704 375.200,102.093 375.200 C 102.482 375.200,102.800 375.380,102.800 375.600 C 102.800 375.820,103.160 376.000,103.600 376.000 C 104.040 376.000,104.400 376.180,104.400 376.400 C 104.400 376.620,104.745 376.800,105.167 376.800 C 105.588 376.800,105.993 376.935,106.067 377.100 C 106.278 377.575,109.441 379.200,110.154 379.200 C 110.745 379.200,110.800 375.089,110.800 331.000 C 110.800 292.706,110.903 282.800,111.300 282.802 C 111.575 282.802,113.870 283.854,116.400 285.139 C 124.709 289.358,136.973 293.631,147.048 295.817 C 155.217 297.589,160.627 298.482,169.964 299.598 C 203.616 303.620,231.625 291.205,238.995 269.000 C 246.771 245.570,240.712 220.828,224.554 210.020 C 211.119 201.034,187.210 197.214,164.400 200.408 C 162.970 200.609,160.360 200.969,158.600 201.210 C 152.793 202.004,145.594 203.174,141.200 204.038 C 135.860 205.087,135.685 205.064,132.071 202.845 C 130.239 201.720,128.678 200.800,128.600 200.800 C 128.522 200.800,126.992 199.900,125.200 198.800 C 123.408 197.700,121.875 196.800,121.794 196.800 C 121.713 196.800,120.466 196.060,119.023 195.155 C 116.040 193.285,116.163 193.714,116.773 187.316 C 116.979 185.162,117.345 180.790,117.588 177.600 C 117.830 174.410,118.196 169.820,118.401 167.400 C 118.607 164.980,118.966 160.390,119.201 157.200 C 119.436 154.010,119.796 149.420,120.001 147.000 C 120.205 144.580,120.562 139.990,120.793 136.800 C 121.024 133.610,121.383 129.020,121.590 126.600 C 121.943 122.472,122.206 119.118,123.197 106.100 C 123.419 103.185,123.786 98.505,124.013 95.700 C 124.240 92.895,124.947 83.988,125.585 75.907 C 126.223 67.825,126.858 61.030,126.996 60.807 C 127.165 60.534,150.357 60.400,197.559 60.400 L 267.871 60.400 268.135 47.135 C 268.281 39.839,268.400 29.075,268.400 23.215 C 268.400 15.523,268.532 12.428,268.875 12.085 C 269.242 11.718,269.057 11.551,268.067 11.353 C 267.361 11.212,266.686 10.940,266.568 10.748 C 266.450 10.557,265.913 10.400,265.376 10.400 C 264.839 10.400,264.400 10.220,264.400 10.000 C 264.400 9.780,263.871 9.600,263.224 9.600 C 262.577 9.600,261.946 9.437,261.823 9.237 C 261.700 9.038,260.700 8.751,259.600 8.600 C 258.500 8.449,257.500 8.162,257.377 7.963 C 257.254 7.763,256.623 7.600,255.976 7.600 C 255.329 7.600,254.800 7.420,254.800 7.200 C 254.800 6.980,254.170 6.800,253.400 6.800 C 252.630 6.800,252.000 6.620,252.000 6.400 C 252.000 6.180,251.280 6.000,250.400 6.000 C 249.520 6.000,248.800 5.820,248.800 5.600 C 248.800 5.380,248.080 5.200,247.200 5.200 C 246.320 5.200,245.600 5.020,245.600 4.800 C 245.600 4.580,244.880 4.400,244.000 4.400 C 243.120 4.400,242.400 4.220,242.400 4.000 C 242.400 3.780,241.601 3.600,240.624 3.600 C 239.647 3.600,238.736 3.420,238.600 3.200 C 238.464 2.980,237.553 2.800,236.576 2.800 C 235.599 2.800,234.800 2.620,234.800 2.400 C 234.800 2.174,233.667 2.000,232.200 2.000 C 230.733 2.000,229.600 1.826,229.600 1.600 C 229.600 1.369,228.344 1.200,226.633 1.200 C 224.651 1.200,223.613 1.038,223.504 0.711 C 223.343 0.228,187.157 -0.122,178.300 0.274 " stroke="none" fill="#dc544c" fill-rule="evenodd"></path><path id="path1" d="M126.996 60.807 C 126.858 61.030,126.223 67.825,125.585 75.907 C 124.947 83.988,124.240 92.895,124.013 95.700 C 123.786 98.505,123.419 103.185,123.197 106.100 C 122.206 119.118,121.943 122.472,121.590 126.600 C 121.383 129.020,121.024 133.610,120.793 136.800 C 120.562 139.990,120.205 144.580,120.001 147.000 C 119.796 149.420,119.436 154.010,119.201 157.200 C 118.966 160.390,118.607 164.980,118.401 167.400 C 118.196 169.820,117.830 174.410,117.588 177.600 C 117.345 180.790,116.979 185.162,116.773 187.316 C 116.163 193.714,116.040 193.285,119.023 195.155 C 120.466 196.060,121.713 196.800,121.794 196.800 C 121.875 196.800,123.408 197.700,125.200 198.800 C 126.992 199.900,128.522 200.800,128.600 200.800 C 128.678 200.800,130.239 201.720,132.071 202.845 C 135.685 205.064,135.860 205.087,141.200 204.038 C 145.594 203.174,152.793 202.004,158.600 201.210 C 160.360 200.969,162.970 200.609,164.400 200.408 C 174.235 199.031,188.967 199.174,199.200 200.747 C 229.437 205.393,244.315 223.814,241.999 253.737 C 239.880 281.112,224.582 295.452,193.084 299.591 C 189.085 300.116,174.337 300.121,169.964 299.598 C 160.627 298.482,155.217 297.589,147.048 295.817 C 136.973 293.631,124.709 289.358,116.400 285.139 C 113.870 283.854,111.575 282.802,111.300 282.802 C 110.907 282.800,110.800 286.972,110.800 302.333 L 110.800 321.865 115.100 323.891 C 122.444 327.352,125.184 328.416,130.800 329.989 C 131.790 330.266,133.050 330.635,133.600 330.808 C 136.123 331.604,143.941 333.264,148.400 333.952 C 160.979 335.891,165.487 336.188,181.800 336.156 C 203.220 336.113,213.210 334.771,228.200 329.922 C 230.180 329.281,232.160 328.611,232.600 328.432 C 239.728 325.536,244.608 323.059,249.724 319.739 C 264.023 310.460,275.007 297.036,280.604 282.000 C 280.973 281.010,281.421 279.840,281.601 279.400 C 282.117 278.136,282.467 277.094,282.811 275.800 C 282.987 275.140,283.408 273.589,283.746 272.353 C 286.662 261.712,288.049 240.739,286.468 231.200 C 286.194 229.550,285.772 227.030,285.529 225.600 C 280.278 194.654,257.135 172.452,222.600 165.231 C 209.214 162.432,185.654 162.589,168.400 165.592 C 167.410 165.764,165.160 166.122,163.400 166.387 C 161.640 166.652,160.020 166.898,159.800 166.934 C 159.259 167.023,159.321 162.600,159.949 156.200 C 160.229 153.340,160.626 149.155,160.829 146.900 C 161.033 144.645,161.380 140.865,161.600 138.500 C 161.820 136.135,162.184 132.130,162.408 129.600 C 162.984 123.113,163.514 117.313,163.998 112.200 C 164.228 109.780,164.525 106.180,164.659 104.200 C 164.793 102.220,165.066 100.285,165.266 99.900 C 165.608 99.239,168.469 99.200,216.796 99.200 L 267.963 99.200 268.082 80.300 C 268.147 69.905,268.136 61.175,268.057 60.900 C 267.871 60.249,127.398 60.156,126.996 60.807 " stroke="none" fill="#fbfbfa" fill-rule="evenodd"></path><path id="path2" d="M268.708 27.300 C 268.658 35.715,268.686 55.352,268.771 70.937 C 268.903 94.990,268.841 99.328,268.363 99.631 C 268.041 99.835,246.012 99.990,216.924 99.994 C 185.741 99.998,165.958 100.145,165.816 100.375 C 165.688 100.581,165.398 102.966,165.171 105.675 C 164.731 110.933,164.197 116.920,163.591 123.400 C 163.195 127.636,162.636 133.752,161.981 141.000 C 161.763 143.420,161.403 147.290,161.183 149.600 C 160.963 151.910,160.608 155.780,160.395 158.200 C 160.181 160.620,159.895 163.482,159.758 164.560 L 159.510 166.519 161.055 166.242 C 161.905 166.089,163.635 165.792,164.900 165.582 C 166.165 165.372,168.325 165.008,169.700 164.774 C 189.420 161.413,211.491 161.816,227.800 165.836 C 231.961 166.862,237.260 168.498,239.500 169.448 C 242.879 170.882,243.956 171.362,246.000 172.344 C 247.210 172.925,248.290 173.490,248.400 173.600 C 248.510 173.710,249.005 174.025,249.500 174.300 C 249.995 174.575,250.805 175.025,251.300 175.300 C 251.795 175.575,252.290 175.890,252.400 176.001 C 252.510 176.111,253.059 176.437,253.620 176.725 C 257.673 178.808,265.809 185.968,270.295 191.400 C 274.303 196.253,274.400 196.377,274.400 196.633 C 274.400 196.755,274.918 197.609,275.552 198.530 C 278.009 202.101,282.400 210.748,282.400 212.015 C 282.400 212.233,282.577 212.723,282.793 213.105 C 286.269 219.248,288.802 244.152,287.184 256.284 C 285.731 267.184,284.247 274.171,282.367 278.953 C 281.945 280.028,281.600 281.057,281.600 281.241 C 281.600 281.909,277.844 289.876,276.180 292.739 C 267.865 307.038,255.947 318.049,240.800 325.424 C 237.918 326.827,236.859 327.299,234.900 328.054 C 234.405 328.244,233.595 328.556,233.100 328.746 C 232.605 328.937,231.750 329.291,231.200 329.533 C 230.650 329.775,228.940 330.353,227.400 330.817 C 225.860 331.282,224.150 331.811,223.600 331.993 C 222.665 332.302,221.750 332.525,217.200 333.549 C 205.375 336.213,196.772 336.914,178.738 336.683 C 161.208 336.459,154.116 335.838,142.600 333.519 C 137.118 332.415,136.241 332.209,132.800 331.207 C 131.150 330.726,129.303 330.237,128.695 330.120 C 128.087 330.003,127.492 329.749,127.371 329.554 C 127.251 329.359,126.801 329.200,126.371 329.200 C 125.941 329.200,125.277 329.041,124.895 328.847 C 124.513 328.652,123.705 328.292,123.100 328.047 C 122.495 327.801,121.505 327.399,120.900 327.153 C 120.295 326.908,119.487 326.548,119.105 326.353 C 118.723 326.159,118.138 326.000,117.805 326.000 C 117.472 326.000,117.200 325.820,117.200 325.600 C 117.200 325.380,116.947 325.200,116.638 325.200 C 115.972 325.200,112.659 323.532,112.467 323.100 C 112.393 322.935,112.078 322.800,111.767 322.800 C 111.283 322.800,111.200 326.912,111.200 350.813 C 111.200 375.344,111.125 378.854,110.600 379.055 C 109.733 379.388,109.863 380.000,110.800 380.000 C 111.240 380.000,111.600 380.180,111.600 380.400 C 111.600 380.620,112.050 380.800,112.600 380.800 C 113.150 380.800,113.600 380.980,113.600 381.200 C 113.600 381.420,113.960 381.600,114.400 381.600 C 114.840 381.600,115.200 381.780,115.200 382.000 C 115.200 382.220,115.560 382.400,116.000 382.400 C 116.440 382.400,116.800 382.580,116.800 382.800 C 116.800 383.020,117.160 383.200,117.600 383.200 C 118.040 383.200,118.400 383.380,118.400 383.600 C 118.400 383.820,118.760 384.000,119.200 384.000 C 119.640 384.000,120.000 384.180,120.000 384.400 C 120.000 384.620,120.540 384.800,121.200 384.800 C 121.860 384.800,122.400 384.980,122.400 385.200 C 122.400 385.420,122.760 385.600,123.200 385.600 C 123.640 385.600,124.000 385.780,124.000 386.000 C 124.000 386.220,124.439 386.400,124.976 386.400 C 125.513 386.400,126.064 386.580,126.200 386.800 C 126.336 387.020,126.797 387.200,127.224 387.200 C 127.651 387.200,128.000 387.380,128.000 387.600 C 128.000 387.820,128.450 388.000,129.000 388.000 C 129.550 388.000,130.000 388.180,130.000 388.400 C 130.000 388.620,130.540 388.800,131.200 388.800 C 131.860 388.800,132.400 388.980,132.400 389.200 C 132.400 389.420,132.820 389.600,133.333 389.600 C 133.847 389.600,134.390 389.723,134.541 389.874 C 135.055 390.388,137.796 391.196,139.900 391.453 C 141.055 391.595,142.000 391.865,142.000 392.055 C 142.000 392.245,142.439 392.400,142.976 392.400 C 143.513 392.400,144.064 392.580,144.200 392.800 C 144.336 393.020,145.067 393.200,145.824 393.200 C 146.581 393.200,147.200 393.380,147.200 393.600 C 147.200 393.820,147.920 394.000,148.800 394.000 C 149.680 394.000,150.400 394.180,150.400 394.400 C 150.400 394.620,150.929 394.800,151.576 394.800 C 152.223 394.800,152.864 394.980,153.000 395.200 C 153.136 395.420,154.047 395.600,155.024 395.600 C 156.001 395.600,156.800 395.780,156.800 396.000 C 156.800 396.220,157.610 396.400,158.600 396.400 C 159.590 396.400,160.400 396.580,160.400 396.800 C 160.400 397.020,161.300 397.200,162.400 397.200 C 163.500 397.200,164.400 397.380,164.400 397.600 C 164.400 397.822,165.467 398.000,166.800 398.000 C 168.133 398.000,169.200 398.178,169.200 398.400 C 169.200 398.628,170.389 398.800,171.967 398.800 C 173.824 398.800,174.788 398.964,174.900 399.300 C 175.031 399.693,180.409 399.800,200.000 399.800 C 219.591 399.800,224.969 399.693,225.100 399.300 C 225.212 398.964,226.176 398.800,228.033 398.800 C 229.611 398.800,230.800 398.628,230.800 398.400 C 230.800 398.178,231.859 398.000,233.176 398.000 C 234.483 398.000,235.664 397.820,235.800 397.600 C 235.936 397.380,236.937 397.200,238.024 397.200 C 239.111 397.200,240.000 397.020,240.000 396.800 C 240.000 396.580,240.709 396.400,241.576 396.400 C 242.443 396.400,243.264 396.220,243.400 396.000 C 243.536 395.780,244.447 395.600,245.424 395.600 C 246.401 395.600,247.200 395.420,247.200 395.200 C 247.200 394.980,247.920 394.800,248.800 394.800 C 249.680 394.800,250.400 394.620,250.400 394.400 C 250.400 394.180,251.019 394.000,251.776 394.000 C 252.533 394.000,253.264 393.820,253.400 393.600 C 253.536 393.380,254.177 393.200,254.824 393.200 C 255.471 393.200,256.000 393.020,256.000 392.800 C 256.000 392.580,256.630 392.400,257.400 392.400 C 258.170 392.400,258.800 392.220,258.800 392.000 C 258.800 391.780,259.229 391.600,259.754 391.600 C 260.778 391.600,264.553 390.560,265.695 389.963 C 266.077 389.763,266.664 389.600,267.000 389.600 C 267.336 389.600,267.923 389.441,268.305 389.247 C 268.687 389.052,269.540 388.671,270.200 388.400 C 270.860 388.129,271.713 387.748,272.095 387.553 C 272.477 387.359,273.152 387.200,273.595 387.200 C 274.038 387.200,274.400 387.020,274.400 386.800 C 274.400 386.580,274.760 386.400,275.200 386.400 C 275.640 386.400,276.000 386.220,276.000 386.000 C 276.000 385.780,276.540 385.600,277.200 385.600 C 277.860 385.600,278.400 385.420,278.400 385.200 C 278.400 384.980,278.760 384.800,279.200 384.800 C 279.640 384.800,280.000 384.620,280.000 384.400 C 280.000 384.180,280.360 384.000,280.800 384.000 C 281.240 384.000,281.600 383.820,281.600 383.600 C 281.600 383.380,281.872 383.200,282.205 383.200 C 282.538 383.200,283.168 383.020,283.605 382.800 C 284.042 382.580,284.758 382.220,285.195 382.000 C 285.632 381.780,286.262 381.600,286.595 381.600 C 286.928 381.600,287.201 381.465,287.201 381.300 C 287.202 381.135,288.192 380.550,289.400 380.000 C 290.608 379.450,291.598 378.865,291.599 378.700 C 291.599 378.535,291.960 378.400,292.400 378.400 C 292.840 378.400,293.200 378.220,293.200 378.000 C 293.200 377.780,293.560 377.600,294.000 377.600 C 294.440 377.600,294.800 377.420,294.800 377.200 C 294.800 376.980,295.036 376.800,295.325 376.800 C 295.613 376.800,296.236 376.440,296.708 376.000 C 297.180 375.560,297.775 375.200,298.029 375.200 C 298.611 375.200,302.553 373.105,302.733 372.700 C 302.807 372.535,303.044 372.400,303.261 372.400 C 303.478 372.400,304.441 371.860,305.400 371.200 C 306.359 370.540,307.297 370.000,307.484 370.000 C 307.671 370.000,308.083 369.640,308.400 369.200 C 308.717 368.760,309.257 368.400,309.600 368.400 C 309.943 368.400,310.483 368.040,310.800 367.600 C 311.117 367.160,311.657 366.800,312.000 366.800 C 312.343 366.800,312.883 366.440,313.200 366.000 C 313.517 365.560,314.009 365.200,314.292 365.200 C 314.575 365.200,315.372 364.660,316.063 364.000 C 316.754 363.340,317.522 362.800,317.771 362.800 C 318.020 362.800,318.483 362.440,318.800 362.000 C 319.117 361.560,319.572 361.200,319.810 361.200 C 320.049 361.200,320.931 360.570,321.772 359.800 C 322.613 359.030,323.423 358.400,323.572 358.400 C 323.721 358.400,324.531 357.770,325.372 357.000 C 326.213 356.230,327.054 355.600,327.242 355.600 C 327.429 355.600,328.573 354.610,329.783 353.400 C 330.993 352.190,332.157 351.200,332.371 351.200 C 332.584 351.200,334.703 349.230,337.079 346.821 C 342.316 341.514,341.514 342.316,346.821 337.079 C 349.230 334.703,351.200 332.584,351.200 332.371 C 351.200 332.157,352.190 330.993,353.400 329.783 C 354.610 328.573,355.600 327.429,355.600 327.242 C 355.600 327.054,356.320 326.113,357.200 325.151 C 358.080 324.188,358.800 323.264,358.800 323.097 C 358.800 322.929,359.340 322.228,360.000 321.537 C 360.660 320.846,361.200 320.078,361.200 319.829 C 361.200 319.580,361.560 319.117,362.000 318.800 C 362.440 318.483,362.800 318.020,362.800 317.771 C 362.800 317.522,363.340 316.754,364.000 316.063 C 364.660 315.372,365.200 314.575,365.200 314.292 C 365.200 314.009,365.560 313.517,366.000 313.200 C 366.440 312.883,366.800 312.343,366.800 312.000 C 366.800 311.657,367.160 311.117,367.600 310.800 C 368.040 310.483,368.400 309.943,368.400 309.600 C 368.400 309.257,368.760 308.717,369.200 308.400 C 369.640 308.083,370.000 307.671,370.000 307.484 C 370.000 307.297,370.540 306.359,371.200 305.400 C 371.860 304.441,372.400 303.463,372.400 303.228 C 372.400 302.993,372.580 302.800,372.800 302.800 C 373.020 302.800,373.200 302.440,373.200 302.000 C 373.200 301.560,373.347 301.200,373.526 301.200 C 373.874 301.200,375.200 298.642,375.200 297.970 C 375.200 297.748,375.560 297.180,376.000 296.708 C 376.440 296.236,376.800 295.613,376.800 295.325 C 376.800 295.036,376.980 294.800,377.200 294.800 C 377.420 294.800,377.600 294.440,377.600 294.000 C 377.600 293.560,377.780 293.200,378.000 293.200 C 378.220 293.200,378.400 292.855,378.400 292.433 C 378.400 292.012,378.537 291.607,378.704 291.533 C 378.871 291.460,379.789 289.780,380.745 287.800 C 381.700 285.820,382.643 283.887,382.841 283.505 C 383.038 283.123,383.200 282.538,383.200 282.205 C 383.200 281.872,383.380 281.600,383.600 281.600 C 383.820 281.600,384.000 281.240,384.000 280.800 C 384.000 280.360,384.180 280.000,384.400 280.000 C 384.620 280.000,384.800 279.651,384.800 279.224 C 384.800 278.797,384.980 278.336,385.200 278.200 C 385.420 278.064,385.600 277.513,385.600 276.976 C 385.600 276.439,385.780 276.000,386.000 276.000 C 386.220 276.000,386.400 275.640,386.400 275.200 C 386.400 274.760,386.580 274.400,386.800 274.400 C 387.020 274.400,387.200 274.038,387.200 273.595 C 387.200 273.152,387.359 272.477,387.553 272.095 C 387.748 271.713,388.129 270.860,388.400 270.200 C 388.671 269.540,389.052 268.687,389.247 268.305 C 389.441 267.923,389.600 267.259,389.600 266.829 C 389.600 266.399,389.780 265.936,390.000 265.800 C 390.220 265.664,390.400 265.124,390.400 264.600 C 390.400 264.076,390.567 263.544,390.772 263.417 C 390.977 263.291,391.267 262.200,391.418 260.994 C 391.569 259.787,391.851 258.800,392.046 258.800 C 392.241 258.800,392.400 258.170,392.400 257.400 C 392.400 256.630,392.580 256.000,392.800 256.000 C 393.020 256.000,393.200 255.471,393.200 254.824 C 393.200 254.177,393.380 253.536,393.600 253.400 C 393.820 253.264,394.000 252.533,394.000 251.776 C 394.000 251.019,394.180 250.400,394.400 250.400 C 394.620 250.400,394.800 249.680,394.800 248.800 C 394.800 247.920,394.980 247.200,395.200 247.200 C 395.420 247.200,395.600 246.491,395.600 245.624 C 395.600 244.757,395.780 243.936,396.000 243.800 C 396.220 243.664,396.400 242.753,396.400 241.776 C 396.400 240.799,396.580 240.000,396.800 240.000 C 397.020 240.000,397.200 239.111,397.200 238.024 C 397.200 236.937,397.380 235.936,397.600 235.800 C 397.820 235.664,398.000 234.584,398.000 233.400 C 398.000 232.216,398.180 231.136,398.400 231.000 C 398.620 230.864,398.800 229.518,398.800 228.010 C 398.800 226.171,398.965 225.212,399.300 225.100 C 400.031 224.856,400.031 175.871,399.300 175.140 C 398.998 174.838,398.800 173.563,398.800 171.920 C 398.800 170.373,398.627 169.200,398.400 169.200 C 398.180 169.200,398.000 168.221,398.000 167.024 C 398.000 165.827,397.820 164.736,397.600 164.600 C 397.380 164.464,397.200 163.463,397.200 162.376 C 397.200 161.289,397.020 160.400,396.800 160.400 C 396.580 160.400,396.400 159.590,396.400 158.600 C 396.400 157.610,396.220 156.800,396.000 156.800 C 395.780 156.800,395.600 156.091,395.600 155.224 C 395.600 154.357,395.420 153.536,395.200 153.400 C 394.980 153.264,394.800 152.533,394.800 151.776 C 394.800 151.019,394.620 150.400,394.400 150.400 C 394.180 150.400,394.000 149.680,394.000 148.800 C 394.000 147.920,393.820 147.200,393.600 147.200 C 393.380 147.200,393.200 146.581,393.200 145.824 C 393.200 145.067,393.020 144.336,392.800 144.200 C 392.580 144.064,392.400 143.513,392.400 142.976 C 392.400 142.439,392.238 142.000,392.039 142.000 C 391.841 142.000,391.553 140.920,391.400 139.600 C 391.247 138.280,390.959 137.200,390.761 137.200 C 390.562 137.200,390.400 136.660,390.400 136.000 C 390.400 135.340,390.220 134.800,390.000 134.800 C 389.780 134.800,389.600 134.260,389.600 133.600 C 389.600 132.940,389.420 132.400,389.200 132.400 C 388.980 132.400,388.800 132.038,388.800 131.595 C 388.800 131.152,388.641 130.477,388.447 130.095 C 388.252 129.713,387.871 128.860,387.600 128.200 C 387.329 127.540,386.948 126.687,386.753 126.305 C 386.559 125.923,386.400 125.248,386.400 124.805 C 386.400 124.362,386.220 124.000,386.000 124.000 C 385.780 124.000,385.600 123.640,385.600 123.200 C 385.600 122.760,385.453 122.400,385.272 122.400 C 385.092 122.400,384.700 121.500,384.400 120.400 C 384.100 119.300,383.708 118.400,383.528 118.400 C 383.347 118.400,383.200 118.040,383.200 117.600 C 383.200 117.160,383.020 116.800,382.800 116.800 C 382.580 116.800,382.400 116.440,382.400 116.000 C 382.400 115.560,382.220 115.200,382.000 115.200 C 381.780 115.200,381.600 114.840,381.600 114.400 C 381.600 113.960,381.420 113.600,381.200 113.600 C 380.980 113.600,380.800 113.240,380.800 112.800 C 380.800 112.360,380.620 112.000,380.400 112.000 C 380.180 112.000,380.000 111.640,380.000 111.200 C 380.000 110.760,379.854 110.400,379.675 110.400 C 379.496 110.400,379.102 109.770,378.800 109.000 C 378.498 108.230,378.104 107.600,377.925 107.600 C 377.746 107.600,377.600 107.240,377.600 106.800 C 377.600 106.360,377.420 106.000,377.200 106.000 C 376.980 106.000,376.800 105.640,376.800 105.200 C 376.800 104.760,376.620 104.400,376.400 104.400 C 376.180 104.400,376.000 104.040,376.000 103.600 C 376.000 103.160,375.820 102.800,375.600 102.800 C 375.380 102.800,375.200 102.506,375.200 102.147 C 375.200 101.788,374.795 100.843,374.301 100.047 C 372.625 97.352,371.979 96.202,371.742 95.500 C 371.613 95.115,371.348 94.800,371.153 94.800 C 370.959 94.800,370.800 94.558,370.800 94.262 C 370.800 93.966,370.440 93.398,370.000 93.000 C 369.560 92.602,369.200 92.034,369.200 91.738 C 369.200 91.442,369.042 91.200,368.849 91.200 C 368.655 91.200,368.273 90.660,368.000 90.000 C 367.727 89.340,367.345 88.800,367.151 88.800 C 366.958 88.800,366.800 88.575,366.799 88.300 C 366.799 88.025,366.259 87.170,365.600 86.400 C 364.941 85.630,364.401 84.815,364.401 84.588 C 364.400 84.362,364.040 83.917,363.600 83.600 C 363.160 83.283,362.800 82.775,362.800 82.472 C 362.800 82.169,362.260 81.417,361.600 80.800 C 360.940 80.183,360.400 79.515,360.400 79.315 C 360.400 79.115,360.085 78.602,359.700 78.175 C 359.315 77.748,358.464 76.679,357.810 75.800 C 357.155 74.920,356.210 73.787,355.710 73.282 C 355.209 72.777,354.800 72.196,354.800 71.991 C 354.800 71.785,353.853 70.668,352.695 69.509 C 351.538 68.349,350.149 66.770,349.609 66.000 C 349.069 65.230,347.181 63.209,345.414 61.509 C 343.646 59.809,342.070 58.279,341.911 58.109 C 338.792 54.771,335.095 51.171,334.000 50.405 C 333.230 49.866,331.970 48.784,331.200 48.000 C 330.430 47.216,329.170 46.131,328.400 45.590 C 327.630 45.049,326.377 44.020,325.617 43.303 C 324.856 42.586,324.089 42.000,323.913 42.000 C 323.737 42.000,323.028 41.460,322.337 40.800 C 321.646 40.140,320.926 39.600,320.737 39.600 C 320.548 39.600,319.828 39.060,319.137 38.400 C 318.446 37.740,317.678 37.200,317.429 37.200 C 317.180 37.200,316.717 36.840,316.400 36.400 C 316.083 35.960,315.569 35.600,315.259 35.600 C 314.948 35.600,314.403 35.284,314.047 34.897 C 313.691 34.511,312.905 33.940,312.300 33.630 C 311.695 33.319,311.200 32.915,311.200 32.732 C 311.200 32.550,310.880 32.400,310.488 32.400 C 310.097 32.400,309.517 32.040,309.200 31.600 C 308.883 31.160,308.427 30.800,308.187 30.800 C 307.947 30.800,307.402 30.475,306.975 30.078 C 306.549 29.680,305.615 29.097,304.900 28.780 C 304.185 28.464,303.600 28.113,303.600 28.002 C 303.600 27.890,302.205 27.079,300.500 26.199 C 298.795 25.320,297.340 24.465,297.267 24.300 C 297.193 24.135,296.788 24.000,296.367 24.000 C 295.945 24.000,295.600 23.820,295.600 23.600 C 295.600 23.380,295.240 23.200,294.800 23.200 C 294.360 23.200,294.000 23.020,294.000 22.800 C 294.000 22.580,293.640 22.400,293.200 22.400 C 292.760 22.400,292.400 22.254,292.400 22.075 C 292.400 21.896,291.770 21.502,291.000 21.200 C 290.230 20.898,289.600 20.504,289.600 20.325 C 289.600 20.146,289.240 20.000,288.800 20.000 C 288.360 20.000,288.000 19.820,288.000 19.600 C 288.000 19.380,287.640 19.200,287.200 19.200 C 286.760 19.200,286.400 19.020,286.400 18.800 C 286.400 18.580,286.040 18.400,285.600 18.400 C 285.160 18.400,284.800 18.220,284.800 18.000 C 284.800 17.780,284.440 17.600,284.000 17.600 C 283.560 17.600,283.200 17.420,283.200 17.200 C 283.200 16.980,282.761 16.800,282.224 16.800 C 281.687 16.800,281.136 16.620,281.000 16.400 C 280.864 16.180,280.403 16.000,279.976 16.000 C 279.549 16.000,279.200 15.820,279.200 15.600 C 279.200 15.380,278.840 15.200,278.400 15.200 C 277.960 15.200,277.600 15.020,277.600 14.800 C 277.600 14.580,277.060 14.400,276.400 14.400 C 275.740 14.400,275.200 14.220,275.200 14.000 C 275.200 13.780,274.840 13.600,274.400 13.600 C 273.960 13.600,273.600 13.420,273.600 13.200 C 273.600 12.980,273.161 12.800,272.624 12.800 C 272.087 12.800,271.536 12.620,271.400 12.400 C 271.264 12.180,270.623 12.000,269.976 12.000 L 268.800 12.000 268.708 27.300 " stroke="none" fill="#24a464" fill-rule="evenodd"></path><path id="path3" d="M268.581 27.400 C 268.581 35.760,268.634 39.237,268.699 35.126 C 268.764 31.016,268.764 24.176,268.700 19.926 C 268.635 15.677,268.582 19.040,268.581 27.400 M268.082 51.200 C 268.044 55.930,268.144 60.009,268.306 60.264 C 268.468 60.519,268.553 57.639,268.495 53.864 C 268.328 42.974,268.157 41.874,268.082 51.200 M268.216 99.173 C 268.032 99.472,252.656 99.600,217.000 99.600 C 188.976 99.600,165.964 99.735,165.862 99.900 C 165.619 100.292,268.241 99.893,268.633 99.500 C 268.798 99.335,268.831 99.098,268.707 98.973 C 268.582 98.849,268.361 98.939,268.216 99.173 M164.924 106.600 C 164.926 107.920,165.001 108.412,165.090 107.693 C 165.179 106.974,165.177 105.894,165.086 105.293 C 164.995 104.692,164.922 105.280,164.924 106.600 M164.120 116.000 C 164.120 117.210,164.195 117.705,164.287 117.100 C 164.378 116.495,164.378 115.505,164.287 114.900 C 164.195 114.295,164.120 114.790,164.120 116.000 M163.320 124.400 C 163.320 125.610,163.395 126.105,163.487 125.500 C 163.578 124.895,163.578 123.905,163.487 123.300 C 163.395 122.695,163.320 123.190,163.320 124.400 M162.520 133.200 C 162.520 134.410,162.595 134.905,162.687 134.300 C 162.778 133.695,162.778 132.705,162.687 132.100 C 162.595 131.495,162.520 131.990,162.520 133.200 M161.667 142.050 C 161.630 142.847,161.511 144.108,161.401 144.850 L 161.203 146.200 161.623 144.860 C 161.854 144.123,161.974 142.863,161.889 142.060 L 161.734 140.600 161.667 142.050 M160.867 150.450 C 160.830 151.248,160.711 152.508,160.601 153.250 L 160.403 154.600 160.823 153.260 C 161.054 152.523,161.174 151.263,161.089 150.460 L 160.934 149.000 160.867 150.450 M160.067 159.650 C 160.030 160.228,159.905 161.308,159.789 162.050 C 159.596 163.286,159.615 163.317,160.008 162.414 C 160.245 161.871,160.370 160.791,160.286 160.014 C 160.177 158.992,160.116 158.891,160.067 159.650 M189.900 162.695 C 191.055 162.776,192.945 162.776,194.100 162.695 C 195.255 162.614,194.310 162.548,192.000 162.548 C 189.690 162.548,188.745 162.614,189.900 162.695 M200.033 162.545 C 200.125 162.625,202.270 162.780,204.800 162.888 C 207.615 163.009,208.779 162.961,207.800 162.766 C 206.216 162.449,199.712 162.265,200.033 162.545 M185.505 163.083 C 186.002 163.179,186.722 163.175,187.105 163.075 C 187.487 162.975,187.080 162.896,186.200 162.901 C 185.320 162.905,185.007 162.987,185.505 163.083 M177.800 163.619 C 177.242 163.871,177.485 163.907,178.600 163.738 C 179.480 163.604,180.275 163.428,180.367 163.347 C 180.710 163.044,178.568 163.271,177.800 163.619 M214.400 163.600 C 214.950 163.776,215.760 163.920,216.200 163.920 C 216.833 163.920,216.792 163.854,216.000 163.600 C 215.450 163.424,214.640 163.280,214.200 163.280 C 213.567 163.280,213.608 163.346,214.400 163.600 M172.000 164.400 C 171.208 164.654,171.167 164.720,171.800 164.720 C 172.240 164.720,173.050 164.576,173.600 164.400 C 174.392 164.146,174.433 164.080,173.800 164.080 C 173.360 164.080,172.550 164.224,172.000 164.400 M167.200 165.200 C 166.396 165.457,166.357 165.523,167.000 165.532 C 167.440 165.538,168.160 165.389,168.600 165.200 C 169.619 164.762,168.568 164.762,167.200 165.200 M162.400 166.000 C 161.596 166.257,161.557 166.323,162.200 166.332 C 162.640 166.338,163.360 166.189,163.800 166.000 C 164.819 165.562,163.768 165.562,162.400 166.000 M237.600 168.934 C 237.600 169.037,238.181 169.324,238.891 169.572 C 239.601 169.819,240.006 169.857,239.791 169.656 C 239.335 169.229,237.600 168.658,237.600 168.934 M266.012 187.007 C 267.656 188.771,269.082 190.159,269.182 190.092 C 269.282 190.025,267.937 188.582,266.194 186.885 L 263.025 183.800 266.012 187.007 M281.513 210.619 C 281.884 211.620,282.239 212.282,282.303 212.091 C 282.431 211.706,281.293 208.800,281.014 208.800 C 280.917 208.800,281.142 209.619,281.513 210.619 M286.080 227.000 C 286.080 227.440,286.224 228.250,286.400 228.800 C 286.654 229.592,286.720 229.633,286.720 229.000 C 286.720 228.560,286.576 227.750,286.400 227.200 C 286.146 226.408,286.080 226.367,286.080 227.000 M286.893 232.800 C 286.893 233.570,286.975 233.885,287.076 233.500 C 287.176 233.115,287.176 232.485,287.076 232.100 C 286.975 231.715,286.893 232.030,286.893 232.800 M287.301 235.800 C 287.305 236.680,287.387 236.993,287.483 236.495 C 287.579 235.998,287.575 235.278,287.475 234.895 C 287.375 234.513,287.296 234.920,287.301 235.800 M287.301 253.000 C 287.305 253.880,287.387 254.193,287.483 253.695 C 287.579 253.198,287.575 252.478,287.475 252.095 C 287.375 251.713,287.296 252.120,287.301 253.000 M286.893 256.000 C 286.893 256.770,286.975 257.085,287.076 256.700 C 287.176 256.315,287.176 255.685,287.076 255.300 C 286.975 254.915,286.893 255.230,286.893 256.000 M282.846 276.467 C 282.821 276.834,282.696 277.464,282.570 277.867 C 282.352 278.562,282.363 278.563,282.797 277.887 C 283.048 277.496,283.173 276.866,283.073 276.487 C 282.911 275.868,282.888 275.866,282.846 276.467 M267.404 304.796 C 266.774 305.454,266.335 306.056,266.429 306.134 C 266.523 306.212,267.113 305.674,267.739 304.938 C 269.154 303.277,268.945 303.188,267.404 304.796 M257.986 314.115 C 256.013 315.948,256.501 315.719,258.914 313.680 C 259.747 312.976,260.287 312.407,260.114 312.415 C 259.941 312.424,258.984 313.189,257.986 314.115 M110.984 322.900 C 110.879 323.175,110.840 335.910,110.897 351.200 L 111.000 379.000 111.200 350.700 C 111.310 335.135,111.349 322.400,111.287 322.400 C 111.226 322.400,111.089 322.625,110.984 322.900 M135.600 331.994 C 135.930 332.211,136.635 332.391,137.167 332.394 C 138.451 332.402,138.125 332.175,136.400 331.858 C 135.415 331.677,135.178 331.718,135.600 331.994 M222.400 332.000 C 221.576 332.264,221.541 332.326,222.200 332.354 C 222.640 332.373,223.270 332.213,223.600 332.000 C 224.301 331.547,223.814 331.547,222.400 332.000 M210.500 334.676 C 210.885 334.776,211.515 334.776,211.900 334.676 C 212.285 334.575,211.970 334.493,211.200 334.493 C 210.430 334.493,210.115 334.575,210.500 334.676 M154.300 335.482 C 154.795 335.578,155.605 335.578,156.100 335.482 C 156.595 335.387,156.190 335.309,155.200 335.309 C 154.210 335.309,153.805 335.387,154.300 335.482 M205.505 335.483 C 206.002 335.579,206.722 335.575,207.105 335.475 C 207.487 335.375,207.080 335.296,206.200 335.301 C 205.320 335.305,205.007 335.387,205.505 335.483 M163.500 336.282 C 163.995 336.378,164.805 336.378,165.300 336.282 C 165.795 336.187,165.390 336.109,164.400 336.109 C 163.410 336.109,163.005 336.187,163.500 336.282 M197.100 336.282 C 197.595 336.378,198.405 336.378,198.900 336.282 C 199.395 336.187,198.990 336.109,198.000 336.109 C 197.010 336.109,196.605 336.187,197.100 336.282 M167.705 336.687 C 168.314 336.779,169.214 336.777,169.705 336.682 C 170.197 336.587,169.700 336.511,168.600 336.514 C 167.500 336.517,167.097 336.595,167.705 336.687 M193.500 336.682 C 193.995 336.778,194.805 336.778,195.300 336.682 C 195.795 336.587,195.390 336.509,194.400 336.509 C 193.410 336.509,193.005 336.587,193.500 336.682 " stroke="none" fill="#6cc494" fill-rule="evenodd"></path><path id="path4" d="M268.101 61.400 C 268.140 62.280,268.134 71.145,268.086 81.100 L 268.000 99.200 216.814 99.200 C 158.668 99.200,164.749 98.793,164.850 102.674 L 164.900 104.600 165.201 102.540 C 165.367 101.408,165.625 100.283,165.775 100.040 C 165.971 99.724,180.326 99.600,216.944 99.600 C 255.996 99.600,267.952 99.488,268.320 99.120 C 268.921 98.519,269.006 61.345,268.408 60.400 C 268.137 59.971,268.049 60.256,268.101 61.400 M164.292 108.400 C 164.135 109.610,164.029 111.410,164.057 112.400 C 164.093 113.704,164.203 113.317,164.455 111.000 C 164.858 107.311,164.719 105.105,164.292 108.400 M163.489 116.956 C 163.330 118.032,163.223 119.742,163.252 120.756 C 163.294 122.266,163.368 122.057,163.659 119.600 C 164.065 116.169,163.926 114.001,163.489 116.956 M162.689 125.756 C 162.530 126.832,162.423 128.542,162.452 129.556 C 162.494 131.066,162.568 130.857,162.859 128.400 C 163.265 124.969,163.126 122.801,162.689 125.756 M161.871 134.802 C 161.726 136.011,161.630 137.900,161.658 139.000 C 161.693 140.334,161.823 139.735,162.051 137.200 C 162.424 133.037,162.293 131.286,161.871 134.802 M161.068 143.359 C 160.920 144.433,160.824 146.232,160.854 147.356 C 160.895 148.899,160.993 148.517,161.254 145.800 C 161.629 141.889,161.501 140.200,161.068 143.359 M160.501 151.400 C 160.505 152.280,160.587 152.593,160.683 152.095 C 160.779 151.598,160.775 150.878,160.675 150.495 C 160.575 150.113,160.496 150.520,160.501 151.400 M159.898 156.600 C 158.959 167.777,158.906 167.289,161.000 166.746 L 162.200 166.435 160.900 166.548 L 159.600 166.661 159.600 164.707 C 159.600 163.633,159.790 161.527,160.023 160.029 C 160.255 158.530,160.390 156.336,160.323 155.152 C 160.215 153.267,160.163 153.446,159.898 156.600 M191.800 162.795 C 188.358 162.988,189.526 163.059,197.167 163.121 C 202.538 163.164,206.858 163.135,206.767 163.054 C 206.409 162.743,195.970 162.562,191.800 162.795 M179.400 163.605 C 178.728 163.779,179.784 163.821,181.800 163.702 C 183.780 163.585,185.475 163.424,185.567 163.344 C 185.881 163.072,180.600 163.295,179.400 163.605 M208.433 163.345 C 208.525 163.425,210.130 163.591,212.000 163.714 C 213.996 163.846,214.987 163.802,214.400 163.609 C 213.430 163.289,208.099 163.054,208.433 163.345 M173.600 164.407 C 172.979 164.611,173.509 164.651,175.000 164.512 C 176.320 164.389,177.475 164.224,177.567 164.144 C 177.889 163.865,174.588 164.084,173.600 164.407 M216.033 164.150 C 216.125 164.232,217.280 164.404,218.600 164.531 C 220.155 164.680,220.648 164.642,220.000 164.421 C 219.014 164.084,215.710 163.859,216.033 164.150 M168.600 165.200 C 167.506 165.670,169.333 165.670,170.800 165.200 C 171.775 164.888,171.770 164.879,170.600 164.868 C 169.940 164.862,169.040 165.011,168.600 165.200 M222.400 165.200 C 222.950 165.376,223.760 165.526,224.200 165.532 L 225.000 165.544 224.200 165.200 C 223.760 165.011,222.950 164.862,222.400 164.868 L 221.400 164.880 222.400 165.200 M163.800 166.000 C 162.706 166.470,164.533 166.470,166.000 166.000 C 166.975 165.688,166.970 165.679,165.800 165.668 C 165.140 165.662,164.240 165.811,163.800 166.000 M226.200 166.000 C 227.396 166.514,228.395 166.514,227.600 166.000 C 227.270 165.787,226.640 165.622,226.200 165.634 L 225.400 165.656 226.200 166.000 M229.400 166.800 C 229.840 166.989,230.470 167.144,230.800 167.144 C 231.178 167.144,231.104 167.017,230.600 166.800 C 230.160 166.611,229.530 166.456,229.200 166.456 C 228.822 166.456,228.896 166.583,229.400 166.800 M232.400 167.600 C 232.730 167.813,233.270 167.988,233.600 167.988 C 234.133 167.988,234.133 167.945,233.600 167.600 C 233.270 167.387,232.730 167.212,232.400 167.212 C 231.867 167.212,231.867 167.255,232.400 167.600 M242.800 171.366 C 242.800 171.457,244.285 172.267,246.100 173.166 C 250.385 175.287,252.441 176.490,255.500 178.664 C 256.875 179.641,257.998 180.296,257.995 180.120 C 257.985 179.539,251.654 175.574,246.309 172.803 C 243.272 171.228,242.800 171.035,242.800 171.366 M258.400 180.525 C 258.400 180.623,259.255 181.391,260.300 182.232 C 261.345 183.072,261.840 183.345,261.400 182.837 C 260.574 181.883,258.400 180.208,258.400 180.525 M262.400 183.829 C 262.400 183.954,262.638 184.269,262.930 184.529 C 263.221 184.788,264.706 186.170,266.230 187.599 C 268.946 190.148,268.938 190.134,265.809 186.899 C 262.615 183.597,262.400 183.403,262.400 183.829 M270.509 192.500 C 271.483 193.655,273.231 196.040,274.394 197.800 C 276.372 200.792,277.772 202.627,276.988 201.200 C 275.359 198.233,269.649 190.461,269.069 190.422 C 268.887 190.410,269.535 191.345,270.509 192.500 M277.288 202.200 C 277.820 203.635,280.126 208.007,280.273 207.860 C 280.372 207.762,279.908 206.628,279.243 205.340 C 278.118 203.164,276.948 201.285,277.288 202.200 M282.856 214.800 C 282.856 215.130,283.011 215.760,283.200 216.200 C 283.417 216.704,283.544 216.778,283.544 216.400 C 283.544 216.070,283.389 215.440,283.200 215.000 C 282.983 214.496,282.856 214.422,282.856 214.800 M283.634 217.600 C 283.646 217.930,283.811 218.560,284.000 219.000 L 284.344 219.800 284.366 219.000 C 284.378 218.560,284.213 217.930,284.000 217.600 C 283.655 217.067,283.615 217.067,283.634 217.600 M284.456 220.400 C 284.456 220.730,284.611 221.360,284.800 221.800 C 285.017 222.304,285.144 222.378,285.144 222.000 C 285.144 221.670,284.989 221.040,284.800 220.600 C 284.583 220.096,284.456 220.022,284.456 220.400 M285.280 224.000 C 285.280 224.550,285.424 225.450,285.600 226.000 L 285.920 227.000 285.920 226.000 C 285.920 225.450,285.776 224.550,285.600 224.000 L 285.280 223.000 285.280 224.000 M286.063 228.600 C 286.054 229.040,286.195 230.120,286.377 231.000 L 286.708 232.600 286.714 231.200 C 286.717 230.430,286.576 229.350,286.400 228.800 C 286.141 227.991,286.077 227.953,286.063 228.600 M287.000 244.400 C 287.000 250.230,287.119 254.100,287.265 253.000 C 287.411 251.900,287.530 248.030,287.530 244.400 C 287.530 240.770,287.411 236.900,287.265 235.800 C 287.119 234.700,287.000 238.570,287.000 244.400 M286.463 257.400 C 286.423 258.060,286.304 259.320,286.197 260.200 L 286.003 261.800 286.423 260.460 C 286.654 259.723,286.774 258.463,286.689 257.660 C 286.552 256.366,286.526 256.337,286.463 257.400 M285.454 264.354 C 285.300 265.318,285.258 266.191,285.361 266.294 C 285.630 266.563,286.115 263.745,285.907 263.122 C 285.812 262.836,285.608 263.390,285.454 264.354 M284.622 268.622 C 284.472 269.425,284.438 270.172,284.548 270.282 C 284.658 270.392,284.872 269.825,285.022 269.022 C 285.173 268.219,285.206 267.473,285.096 267.363 C 284.986 267.253,284.773 267.819,284.622 268.622 M283.829 271.829 C 283.681 272.415,283.651 272.984,283.761 273.094 C 283.871 273.204,284.081 272.815,284.229 272.229 C 284.376 271.642,284.406 271.073,284.296 270.963 C 284.186 270.853,283.976 271.242,283.829 271.829 M283.000 274.800 C 282.850 275.273,282.817 275.750,282.927 275.860 C 283.037 275.970,283.250 275.673,283.400 275.200 C 283.550 274.727,283.583 274.250,283.473 274.140 C 283.363 274.030,283.150 274.327,283.000 274.800 M280.267 282.867 C 279.905 283.788,279.674 284.607,279.754 284.688 C 279.834 284.768,280.200 284.083,280.567 283.167 C 280.933 282.250,281.164 281.431,281.079 281.346 C 280.994 281.261,280.629 281.945,280.267 282.867 M277.781 288.437 C 277.429 289.118,277.212 289.745,277.299 289.832 C 277.386 289.919,277.756 289.362,278.122 288.595 C 278.944 286.870,278.659 286.738,277.781 288.437 M276.246 291.386 C 275.891 291.928,275.600 292.481,275.600 292.614 C 275.600 292.747,275.091 293.608,274.468 294.528 C 273.022 296.664,272.712 297.200,272.923 297.200 C 273.148 297.200,274.986 294.411,276.233 292.178 C 277.299 290.269,277.307 289.766,276.246 291.386 M269.059 302.300 C 267.478 304.354,267.053 305.056,268.029 304.000 C 269.603 302.297,272.204 298.800,271.896 298.800 C 271.817 298.800,270.541 300.375,269.059 302.300 M262.888 309.105 C 261.286 310.757,260.035 312.169,260.109 312.242 C 260.183 312.316,261.669 310.941,263.412 309.188 C 265.155 307.435,266.405 306.023,266.191 306.050 C 265.976 306.078,264.489 307.453,262.888 309.105 M257.000 314.469 C 255.680 315.583,252.440 317.913,249.800 319.647 C 247.160 321.381,245.139 322.800,245.309 322.800 C 245.605 322.800,246.463 322.282,251.116 319.294 C 254.268 317.271,260.391 312.265,259.524 312.422 C 259.456 312.435,258.320 313.356,257.000 314.469 M110.800 322.467 C 110.800 322.723,110.908 322.825,111.041 322.693 C 111.173 322.560,112.658 323.145,114.341 323.993 C 118.156 325.915,121.734 327.340,121.403 326.805 C 121.265 326.582,120.966 326.400,120.738 326.400 C 120.509 326.400,118.247 325.410,115.712 324.200 C 110.566 321.745,110.800 321.827,110.800 322.467 M243.100 323.627 C 242.275 324.063,241.600 324.508,241.600 324.618 C 241.600 324.727,242.320 324.449,243.200 324.000 C 244.080 323.551,244.800 323.097,244.800 322.992 C 244.800 322.730,244.797 322.731,243.100 323.627 M238.683 325.782 C 237.628 326.288,236.638 326.832,236.483 326.993 C 236.137 327.349,238.619 326.338,240.228 325.466 C 242.006 324.504,240.861 324.738,238.683 325.782 M123.026 327.765 C 125.044 328.644,126.326 328.859,124.600 328.029 C 123.720 327.606,122.730 327.253,122.400 327.245 C 122.070 327.238,122.352 327.472,123.026 327.765 M129.400 330.000 C 130.596 330.514,131.595 330.514,130.800 330.000 C 130.470 329.787,129.840 329.622,129.400 329.634 L 128.600 329.656 129.400 330.000 M226.878 330.295 C 225.931 330.622,225.225 330.959,225.310 331.043 C 225.504 331.237,229.600 330.035,229.600 329.785 C 229.600 329.492,228.735 329.654,226.878 330.295 M132.200 330.800 C 133.396 331.314,134.395 331.314,133.600 330.800 C 133.270 330.587,132.640 330.422,132.200 330.434 L 131.400 330.456 132.200 330.800 M135.400 331.600 C 135.840 331.789,136.470 331.944,136.800 331.944 C 137.178 331.944,137.104 331.817,136.600 331.600 C 136.160 331.411,135.530 331.256,135.200 331.256 C 134.822 331.256,134.896 331.383,135.400 331.600 M138.600 332.400 C 139.040 332.589,139.760 332.744,140.200 332.744 L 141.000 332.744 140.200 332.400 C 139.760 332.211,139.040 332.056,138.600 332.056 L 137.800 332.056 138.600 332.400 M219.600 332.400 C 218.805 332.914,219.804 332.914,221.000 332.400 L 221.800 332.056 221.000 332.034 C 220.560 332.022,219.930 332.187,219.600 332.400 M142.000 333.200 C 142.550 333.376,143.450 333.520,144.000 333.520 L 145.000 333.520 144.000 333.200 C 143.450 333.024,142.550 332.880,142.000 332.880 L 141.000 332.880 142.000 333.200 M216.000 333.200 C 215.208 333.454,215.167 333.520,215.800 333.520 C 216.240 333.520,217.050 333.376,217.600 333.200 C 218.392 332.946,218.433 332.880,217.800 332.880 C 217.360 332.880,216.550 333.024,216.000 333.200 M146.400 334.000 C 146.950 334.176,147.940 334.317,148.600 334.313 L 149.800 334.305 148.600 334.000 C 147.940 333.832,146.950 333.691,146.400 333.687 L 145.400 333.680 146.400 334.000 M212.200 334.000 L 211.400 334.344 212.200 334.344 C 212.640 334.344,213.360 334.189,213.800 334.000 L 214.600 333.656 213.800 333.656 C 213.360 333.656,212.640 333.811,212.200 334.000 M151.400 334.800 C 152.060 334.968,153.230 335.105,154.000 335.105 L 155.400 335.105 154.200 334.800 C 153.540 334.632,152.370 334.495,151.600 334.495 L 150.200 334.495 151.400 334.800 M207.200 334.800 L 206.200 335.120 207.200 335.120 C 207.750 335.120,208.650 334.976,209.200 334.800 L 210.200 334.480 209.200 334.480 C 208.650 334.480,207.750 334.624,207.200 334.800 M158.400 335.620 C 159.390 335.797,161.010 335.929,162.000 335.914 L 163.800 335.887 161.600 335.583 C 158.439 335.146,155.901 335.176,158.400 335.620 M200.600 335.600 C 198.668 335.865,198.654 335.876,200.200 335.914 C 201.080 335.936,202.520 335.805,203.400 335.623 C 205.442 335.201,203.620 335.186,200.600 335.600 M168.400 336.453 C 171.831 336.787,191.591 336.793,194.400 336.460 C 195.610 336.317,189.670 336.200,181.200 336.200 C 172.730 336.200,166.970 336.314,168.400 336.453 " stroke="none" fill="#71c49c" fill-rule="evenodd"></path></g></svg>