<?xml version="1.0" standalone="no"?>
<!DOCTYPE svg PUBLIC "-//W3C//DTD SVG 20010904//EN"
 "http://www.w3.org/TR/2001/REC-SVG-20010904/DTD/svg10.dtd">
<svg version="1.0" xmlns="http://www.w3.org/2000/svg"
 width="760.000000pt" height="645.000000pt" viewBox="0 0 760.000000 645.000000"
 preserveAspectRatio="xMidYMid meet">
<metadata>
Created by potrace 1.16, written by Peter Selinger 2001-2019
</metadata>
<g transform="translate(0.000000,645.000000) scale(0.100000,-0.100000)"
fill="#000000" stroke="none">
<path d="M0 3225 l0 -3225 3800 0 3800 0 0 3225 0 3225 -3800 0 -3800 0 0
-3225z m4325 2876 c16 -9 40 -35 52 -57 72 -125 -48 -277 -184 -234 -73 24
-113 79 -113 157 0 126 132 198 245 134z m-1175 0 c68 -36 101 -142 65 -211
-8 -16 -30 -40 -48 -54 -108 -82 -265 3 -254 137 10 116 134 183 237 128z
m796 -453 c59 -55 63 -142 8 -199 -82 -85 -220 -38 -232 79 -8 91 48 152 141
152 40 0 53 -5 83 -32z m-1787 -137 c89 -64 85 -206 -7 -267 -19 -13 -46 -19
-89 -19 -72 0 -105 19 -140 81 -85 147 96 304 236 205z m867 14 c43 -28 66
-74 61 -126 -4 -54 -29 -91 -75 -113 -93 -45 -196 20 -196 124 0 109 120 175
210 115z m2304 -7 c57 -39 75 -72 75 -137 0 -48 -5 -64 -29 -95 -50 -66 -125
-83 -202 -45 -111 53 -119 206 -14 276 46 32 124 32 170 1z m-542 -197 c37
-26 66 -94 57 -137 -11 -62 -73 -114 -135 -114 -152 0 -194 202 -55 266 39 18
96 12 133 -15z m-1065 -141 c38 -30 52 -80 33 -123 -39 -95 -183 -81 -202 19
-8 41 0 66 33 98 33 33 98 36 136 6z m-656 -170 c55 -33 58 -125 6 -167 -69
-56 -173 -8 -173 80 1 89 89 135 167 87z m1293 5 c33 -17 60 -61 60 -97 0 -13
-9 -37 -20 -55 -43 -71 -149 -63 -186 15 -24 51 -4 109 46 134 43 22 63 22
100 3z m-2062 -49 c62 -32 89 -93 71 -160 -29 -108 -160 -137 -238 -53 -32 35
-40 111 -17 156 33 62 121 90 184 57z m1393 -245 c37 -37 38 -79 3 -120 -21
-25 -33 -31 -65 -31 -55 0 -89 34 -89 90 0 85 90 121 151 61z m440 -100 c49
-50 30 -129 -36 -151 -30 -10 -40 -9 -68 7 -45 27 -62 64 -47 108 22 67 101
85 151 36z m1209 -6 c57 -29 86 -96 70 -157 -31 -109 -167 -138 -239 -50 -73
88 -11 222 102 222 21 0 51 -7 67 -15z m-2079 -24 c20 -20 29 -39 29 -61 0
-45 -47 -90 -95 -90 -51 0 -85 36 -85 90 0 85 90 121 151 61z m-660 -72 c47
-50 37 -128 -21 -162 -75 -45 -159 4 -160 91 0 35 6 49 29 73 24 24 38 29 76
29 40 0 52 -5 76 -31z m2263 -8 c80 -80 -12 -211 -117 -167 -37 15 -67 58 -67
96 0 36 30 81 63 96 43 19 86 10 121 -25z m-3302 2 c74 -36 103 -154 55 -223
-70 -105 -223 -97 -276 14 -25 50 -26 84 -7 130 37 89 139 124 228 79z m4348
-5 c57 -39 75 -72 75 -138 0 -97 -58 -155 -155 -155 -66 0 -99 18 -137 75 -89
131 86 306 217 218z m-1469 -178 c10 -6 26 -24 35 -41 47 -92 -72 -174 -147
-100 -16 16 -29 39 -29 51 0 28 26 77 47 89 23 13 69 14 94 1z m-1506 -46 c21
-8 45 -56 45 -89 0 -16 -12 -38 -29 -56 -37 -37 -79 -38 -120 -3 -63 52 -28
154 53 154 19 0 42 -3 51 -6z m-952 -180 c84 -62 70 -190 -26 -237 -100 -49
-214 43 -193 155 6 33 53 88 86 102 28 11 107 -1 133 -20z m1674 -41 c-3 -10
-10 -40 -16 -68 -6 -27 -24 -117 -42 -198 -17 -81 -28 -159 -25 -172 9 -35 45
-41 94 -16 45 23 34 -12 105 316 l32 150 83 3 c67 2 82 0 82 -12 0 -8 -18
-102 -40 -208 -46 -219 -47 -248 -9 -262 29 -10 63 7 156 76 24 17 46 28 50
25 10 -11 -123 -142 -181 -180 -86 -55 -187 -39 -224 36 l-13 27 -50 -40 c-28
-22 -68 -44 -89 -50 -42 -11 -45 -16 -55 -84 -10 -66 -28 -81 -114 -100 -41
-9 -76 -15 -78 -13 -2 2 8 58 23 123 14 65 50 236 80 379 30 143 56 266 59
273 3 8 31 12 90 12 77 0 86 -2 82 -17z m908 -163 c31 -12 55 -64 48 -103 -12
-62 -107 -91 -151 -44 -30 32 -36 69 -17 106 23 46 67 61 120 41z m-2138 -35
c35 -40 32 -108 -6 -146 -48 -47 -137 -36 -167 22 -24 48 -18 87 21 126 33 33
39 35 82 30 35 -4 53 -12 70 -32z m2570 25 c8 0 28 -14 44 -31 42 -46 41 -99
-5 -145 -49 -49 -114 -45 -158 10 -22 27 -23 94 -2 125 19 26 72 53 92 46 8
-3 20 -5 29 -5z m-2143 -71 c31 -37 33 -63 6 -106 -38 -63 -136 -50 -159 20
-21 64 20 117 90 117 29 0 43 -7 63 -31z m2624 -109 c64 -39 89 -118 58 -178
-54 -104 -186 -109 -246 -10 -71 116 72 259 188 188z m-993 -265 c56 -56 18
-155 -60 -155 -48 0 -95 45 -95 90 0 76 102 119 155 65z m-1500 -57 c29 -34
31 -57 11 -97 -14 -27 -53 -51 -82 -51 -32 0 -73 31 -83 63 -33 99 87 165 154
85z m-1417 -45 c99 -73 96 -201 -7 -270 -61 -41 -152 -25 -204 36 -66 78 -37
205 58 247 40 19 119 12 153 -13z m4350 0 c53 -39 74 -82 70 -144 -7 -94 -66
-149 -160 -149 -90 0 -158 69 -158 161 0 54 28 101 80 137 29 20 44 23 88 20
32 -3 64 -13 80 -25z m-3353 -107 c35 -15 65 -59 65 -96 0 -38 -30 -81 -67
-96 -123 -52 -209 131 -89 190 39 19 48 19 91 2z m2296 -25 c64 -64 21 -181
-66 -181 -104 0 -152 105 -81 176 46 46 104 48 147 5z m-2778 5 c54 -22 87
-70 87 -124 0 -83 -56 -142 -135 -142 -77 0 -135 59 -135 138 0 57 22 97 68
121 44 24 72 26 115 7z m2103 -111 c43 -66 -2 -145 -81 -145 -35 0 -85 50 -85
85 0 91 118 134 166 60z m-878 -19 c37 -36 34 -91 -6 -127 -35 -32 -57 -35
-97 -17 -27 12 -55 54 -55 82 0 31 26 69 55 82 37 17 73 10 103 -20z m437
-101 c25 -24 33 -73 19 -110 -8 -20 -56 -45 -88 -45 -36 0 -76 39 -82 81 -13
82 92 134 151 74z m1378 -119 c18 -7 45 -28 60 -45 53 -63 27 -175 -48 -207
-100 -41 -195 20 -195 126 0 99 94 164 183 126z m-2056 -121 c35 -23 49 -82
29 -128 -34 -83 -150 -85 -190 -3 -17 36 -18 43 -5 80 24 69 101 93 166 51z
m1314 -14 c23 -24 29 -38 29 -73 -1 -100 -106 -144 -176 -74 -38 38 -44 77
-19 126 20 38 41 49 93 50 35 0 49 -6 73 -29z m-655 -175 c89 -89 -13 -219
-126 -161 -37 19 -50 43 -50 95 0 59 42 100 100 100 34 0 48 -6 76 -34z
m-1049 -66 c46 -28 66 -72 60 -134 -4 -41 -11 -55 -39 -81 -48 -45 -97 -52
-155 -24 -76 37 -103 127 -57 196 39 60 130 81 191 43z m-533 -153 c52 -29 80
-77 80 -136 -1 -62 -25 -105 -77 -136 -119 -69 -262 22 -244 157 15 113 140
173 241 115z m3186 1 c57 -39 75 -72 75 -138 0 -66 -18 -99 -76 -138 -44 -31
-129 -28 -177 7 -95 67 -84 223 19 274 50 24 119 22 159 -5z m-903 -48 c46
-28 67 -65 67 -120 0 -141 -172 -189 -252 -70 -43 64 -17 159 53 194 41 21 94
20 132 -4z m-936 -120 c112 -31 135 -190 36 -250 -90 -55 -210 10 -210 114 0
57 29 105 78 127 47 22 49 22 96 9z m-347 -410 c97 -47 119 -171 47 -254 -63
-71 -201 -61 -251 19 -91 147 51 310 204 235z m1184 -7 c51 -38 67 -70 67
-133 0 -92 -54 -150 -147 -158 -61 -4 -106 19 -145 77 -52 77 -13 192 77 230
37 16 117 7 148 -16z m3059 -1045 c-3 -8 -6 -5 -6 6 -1 11 2 17 5 13 3 -3 4
-12 1 -19z m-80 -10 c-3 -8 -6 -5 -6 6 -1 11 2 17 5 13 3 -3 4 -12 1 -19z
m173 18 c0 -3 -4 -8 -10 -11 -5 -3 -10 -1 -10 4 0 6 5 11 10 11 6 0 10 -2 10
-4z m-5321 -66 c53 -27 58 -38 28 -67 l-25 -25 -31 23 c-19 14 -49 24 -83 27
-91 7 -146 -49 -168 -171 -25 -135 37 -264 136 -283 41 -7 106 9 124 31 17 20
33 19 55 -5 15 -16 16 -22 5 -36 -54 -64 -191 -77 -288 -28 -45 24 -64 41 -89
83 -110 184 -33 424 152 472 46 12 141 2 184 -21z m1640 14 c74 -22 134 -84
157 -160 23 -79 16 -223 -13 -279 -45 -86 -124 -136 -217 -137 -138 -1 -222
71 -252 215 -22 106 -3 212 52 284 33 43 65 64 122 79 63 17 89 17 151 -2z
m3578 -16 c-3 -8 -6 -5 -6 6 -1 11 2 17 5 13 3 -3 4 -12 1 -19z m-7053 -125
c99 -281 109 -306 116 -292 4 8 40 107 80 222 l73 207 73 0 74 0 0 -280 0
-280 -50 0 -50 0 0 223 c0 125 -4 215 -9 207 -5 -8 -42 -109 -82 -223 l-74
-208 -44 3 -43 3 -76 218 c-42 119 -80 217 -84 217 -4 0 -8 -99 -8 -220 l0
-220 -40 0 -40 0 0 280 0 280 68 0 68 0 48 -137z m986 -143 l0 -280 -50 0 -50
0 0 280 0 280 50 0 50 0 0 -280z m1647 260 c109 -49 112 -209 6 -257 -21 -10
-40 -18 -42 -20 -2 -1 26 -58 63 -127 36 -69 66 -127 66 -130 0 -4 -22 -6 -49
-6 l-50 0 -62 125 -63 125 -43 0 -43 0 0 -125 0 -125 -45 0 -45 0 0 280 0 280
133 0 c108 0 140 -4 174 -20z m1582 -66 c25 -44 93 -163 151 -263 l105 -183 3
266 c1 155 6 266 12 266 9 0 18 -341 12 -482 -3 -65 -6 -78 -20 -78 -9 0 -26
17 -38 38 -74 134 -269 470 -280 482 -12 12 -14 -27 -14 -253 0 -171 -4 -267
-10 -267 -6 0 -10 100 -10 281 l0 280 21 -3 c15 -2 36 -28 68 -84z m949 59
c17 -42 172 -518 172 -526 0 -4 -4 -7 -9 -7 -5 0 -21 36 -36 80 l-27 81 -131
-3 -131 -3 -27 -75 c-14 -41 -32 -76 -38 -78 -6 -2 -11 -1 -11 2 0 4 170 504
185 544 8 23 42 13 53 -15z m604 -190 c3 -197 5 -222 24 -258 29 -55 70 -77
144 -77 71 0 115 22 145 72 18 32 20 55 23 258 3 134 8 222 14 222 6 0 8 -85
6 -227 -3 -259 -8 -278 -84 -320 -55 -32 -153 -32 -208 0 -73 41 -81 70 -84
325 -2 137 0 222 6 222 6 0 11 -88 14 -217z m1011 210 l-73 -4 0 -275 c0 -216
-3 -275 -12 -272 -10 4 -14 70 -16 276 l-2 271 -73 4 c-39 1 0 3 88 3 88 0
127 -2 88 -3z m204 -40 c-3 -10 -5 -2 -5 17 0 19 2 27 5 18 2 -10 2 -26 0 -35z
m133 7 c0 -5 -5 -10 -11 -10 -5 0 -7 5 -4 10 3 6 8 10 11 10 2 0 4 -4 4 -10z"/>
<path d="M3632 573 c-48 -46 -62 -90 -62 -198 0 -135 50 -212 144 -222 79 -9
138 58 154 172 21 165 -43 285 -154 285 -36 0 -49 -6 -82 -37z"/>
<path d="M2740 505 l0 -95 69 0 c59 0 74 4 99 25 36 30 47 68 31 107 -17 41
-57 58 -134 58 l-65 0 0 -95z"/>
<path d="M5397 468 c-32 -95 -57 -176 -57 -180 0 -5 54 -8 121 -8 92 0 120 3
116 13 -2 6 -29 87 -58 180 -29 92 -56 167 -59 167 -4 0 -32 -78 -63 -172z"/>
</g>
</svg>
