<svg id="svg" version="1.1" xmlns="http://www.w3.org/2000/svg" xmlns:xlink="http://www.w3.org/1999/xlink" width="400" height="324.56418383518223" viewBox="0, 0, 400,324.56418383518223"><g id="svgg"><path id="path0" d="M220.444 4.074 C 201.475 10.671,185.004 18.461,180.342 23.039 C 178.630 24.720,178.911 27.005,180.983 28.249 C 183.386 29.692,183.592 29.675,184.294 27.967 C 184.957 26.354,188.075 23.035,190.455 21.407 L 191.828 20.468 192.507 21.401 C 192.880 21.915,195.345 24.980,197.985 28.213 L 202.784 34.091 206.168 34.668 C 208.030 34.985,209.618 35.178,209.699 35.098 C 209.820 34.976,200.147 25.521,195.247 20.974 C 193.737 19.571,193.724 19.449,195.146 19.993 C 199.463 21.644,217.300 25.104,226.223 26.022 L 230.101 26.420 225.272 28.997 C 218.608 32.554,213.600 35.513,213.773 35.792 C 213.853 35.921,215.120 36.214,216.590 36.442 L 219.263 36.858 221.692 35.383 C 224.280 33.812,229.750 29.819,230.420 29.011 C 231.104 28.187,231.246 28.375,234.077 33.835 C 237.466 40.369,236.932 39.786,239.956 40.257 C 243.107 40.747,243.022 40.899,241.296 37.874 C 235.903 28.419,230.612 16.913,227.745 8.403 C 225.488 1.705,226.141 2.092,220.444 4.074 M224.859 5.151 C 224.922 5.368,225.208 7.071,225.494 8.935 C 226.067 12.668,227.123 16.965,228.357 20.578 C 228.799 21.873,229.160 23.025,229.160 23.140 C 229.160 23.254,227.267 22.959,224.953 22.485 C 220.142 21.499,211.503 20.032,202.564 18.682 C 199.180 18.171,196.368 17.710,196.316 17.657 C 196.156 17.498,206.589 12.215,210.143 10.656 C 221.822 5.533,224.660 4.472,224.859 5.151 M263.100 109.999 C 260.428 110.786,260.522 110.580,261.016 114.580 C 261.586 119.203,262.232 128.365,262.003 128.594 C 261.756 128.841,255.262 124.951,248.277 120.373 L 242.513 116.595 240.749 117.151 C 239.779 117.457,238.986 117.806,238.986 117.928 C 238.986 118.430,253.220 126.658,259.033 129.517 C 260.384 130.182,261.488 130.801,261.487 130.894 C 261.472 131.740,248.386 139.197,240.344 142.942 C 234.533 145.649,234.092 145.795,234.360 144.929 C 236.559 137.831,239.095 118.141,237.797 118.244 C 237.666 118.254,236.704 118.575,235.658 118.957 L 233.756 119.652 233.682 122.187 C 233.560 126.337,232.995 131.629,232.320 134.935 C 231.504 138.930,229.786 145.166,229.501 145.166 C 227.881 145.166,219.263 134.216,216.959 129.229 C 215.713 126.533,215.696 126.525,213.561 127.515 L 212.066 128.209 212.949 130.282 C 215.228 135.638,220.141 142.385,224.736 146.468 C 225.959 147.555,226.849 148.552,226.713 148.683 C 225.948 149.422,196.657 159.679,196.308 159.330 C 196.266 159.288,197.029 157.902,198.003 156.251 C 202.614 148.439,211.845 128.617,210.832 128.703 C 210.714 128.713,209.406 129.248,207.924 129.891 L 205.230 131.062 203.536 134.390 C 199.656 142.017,194.395 151.293,190.272 157.778 L 189.005 159.772 188.191 157.937 C 185.709 152.338,184.982 144.400,186.571 140.260 C 186.715 139.884,185.840 140.198,183.588 141.328 L 180.401 142.927 180.160 145.077 C 179.500 150.957,180.081 154.848,182.400 160.077 C 183.193 161.867,183.805 163.355,183.760 163.384 C 183.714 163.412,180.396 164.401,176.387 165.581 C 172.377 166.760,168.878 167.838,168.611 167.975 C 168.344 168.112,167.668 168.324,167.109 168.447 C 165.728 168.750,165.608 169.079,166.406 170.370 C 166.857 171.099,166.954 171.474,166.693 171.474 C 166.475 171.474,166.361 171.538,166.439 171.616 C 166.517 171.694,167.147 171.625,167.839 171.462 C 175.022 169.767,183.276 167.956,183.374 168.054 C 183.493 168.174,182.421 169.781,177.229 177.256 C 175.807 179.303,174.643 181.130,174.643 181.316 C 174.643 181.502,174.501 181.566,174.326 181.458 C 174.152 181.350,174.010 181.509,174.010 181.811 C 174.010 182.112,173.764 182.655,173.463 183.018 C 173.163 183.380,173.117 183.502,173.360 183.288 C 173.722 182.971,173.910 183.074,174.377 183.843 C 175.256 185.287,175.406 185.163,180.824 178.551 C 183.613 175.146,186.467 171.719,187.166 170.933 L 188.436 169.505 190.097 171.415 C 193.272 175.065,199.690 180.216,204.548 183.014 C 206.654 184.226,207.913 183.635,188.590 190.506 C 179.346 193.792,179.884 193.490,180.842 194.859 C 181.114 195.246,181.253 195.699,181.151 195.864 C 180.941 196.203,181.028 196.186,184.945 195.135 C 192.651 193.066,199.013 191.278,203.282 189.981 C 205.872 189.194,208.055 188.615,208.133 188.693 C 208.263 188.823,207.545 190.026,203.962 195.678 C 201.069 200.242,196.552 207.550,195.756 208.954 C 194.818 210.608,194.709 210.646,192.868 209.958 C 190.226 208.971,187.967 208.319,188.135 208.592 C 188.231 208.747,188.502 208.875,188.737 208.875 C 188.971 208.875,189.832 210.016,190.650 211.410 C 192.110 213.901,192.168 213.955,193.929 214.445 C 194.914 214.720,196.149 215.072,196.672 215.227 C 204.187 217.461,239.609 221.707,243.202 220.805 C 244.507 220.477,252.071 204.764,256.785 192.589 C 262.442 177.979,264.882 167.764,266.787 150.713 C 267.496 144.366,267.605 122.169,266.951 117.274 C 266.109 110.970,265.807 109.351,265.476 109.374 C 265.288 109.388,264.219 109.669,263.100 109.999 M261.811 144.849 C 261.476 149.770,260.438 158.932,260.031 160.553 L 259.847 161.287 256.248 160.046 C 249.762 157.809,243.256 154.669,237.406 150.949 L 235.426 149.690 239.504 147.529 C 247.316 143.390,257.678 137.004,261.014 134.275 L 261.965 133.497 262.066 136.558 C 262.121 138.242,262.006 141.973,261.811 144.849 M164.894 151.873 C 164.691 152.076,163.582 152.559,162.428 152.947 C 160.359 153.644,158.796 154.667,158.796 155.326 C 158.796 155.511,158.668 155.584,158.512 155.488 C 157.939 155.134,157.928 156.164,158.497 156.913 L 159.084 157.686 161.079 155.739 C 162.177 154.667,163.645 153.277,164.342 152.650 C 165.040 152.022,165.532 151.508,165.436 151.507 C 165.340 151.506,165.096 151.671,164.894 151.873 M242.789 157.472 C 246.403 158.994,252.168 161.003,255.637 161.948 C 259.337 162.956,259.202 162.867,258.073 163.554 C 255.503 165.117,240.036 171.585,227.797 176.215 C 224.624 177.415,221.647 178.544,221.180 178.722 C 220.394 179.023,220.583 178.538,223.759 172.092 C 226.800 165.918,231.276 155.383,231.863 153.020 L 232.077 152.156 235.928 154.180 C 238.045 155.293,241.133 156.774,242.789 157.472 M225.720 155.822 C 223.114 162.417,213.058 181.616,212.209 181.616 C 209.628 181.616,191.464 166.098,193.230 165.402 C 193.554 165.274,195.888 164.596,198.416 163.895 C 205.774 161.854,215.458 158.493,223.455 155.206 C 226.624 153.903,226.492 153.867,225.720 155.822 M258.302 169.278 C 256.518 176.588,251.323 194.087,250.761 194.679 C 250.498 194.956,241.653 193.075,237.086 191.772 C 229.536 189.618,218.079 185.275,218.601 184.765 C 218.743 184.626,221.426 183.377,224.564 181.989 C 236.990 176.495,253.651 168.487,257.845 165.993 C 259.458 165.034,259.414 164.722,258.302 169.278 M218.531 189.551 C 226.313 192.474,242.766 196.197,247.903 196.197 C 250.887 196.197,242.776 198.749,201.976 210.647 C 200.535 211.067,198.985 211.410,198.530 211.410 C 197.546 211.410,197.441 211.589,200.984 207.238 C 204.549 202.860,208.997 196.854,212.044 192.302 C 213.526 190.089,214.826 188.277,214.933 188.275 C 215.040 188.274,216.659 188.848,218.531 189.551 M249.412 199.183 C 249.144 200.153,245.563 209.976,243.239 216.118 C 242.754 217.399,242.161 218.523,241.921 218.615 C 241.112 218.926,217.957 215.356,207.050 213.239 L 203.483 212.547 208.001 211.506 C 220.134 208.712,223.565 207.832,229.635 205.959 C 233.642 204.723,242.297 201.418,246.434 199.544 C 248.177 198.754,249.628 198.106,249.657 198.103 C 249.687 198.101,249.576 198.587,249.412 199.183 " stroke="none" fill="#bbc1c9" fill-rule="evenodd"></path><path id="path1" d="M177.861 26.635 C 177.746 28.588,178.177 29.109,187.803 38.669 C 201.734 52.505,205.214 57.439,207.787 67.008 C 214.738 92.850,201.920 117.844,165.859 148.767 C 163.207 151.041,161.096 152.960,161.167 153.032 C 161.462 153.327,164.265 152.108,165.995 150.933 C 167.015 150.240,168.701 149.260,169.741 148.756 C 172.414 147.459,179.342 143.661,180.676 142.761 C 181.762 142.029,189.727 138.226,199.584 133.733 C 202.232 132.526,204.870 131.264,205.448 130.928 C 206.025 130.591,207.496 129.935,208.716 129.469 C 209.937 129.003,211.791 128.217,212.837 127.722 C 213.883 127.227,215.095 126.757,215.531 126.677 C 215.967 126.596,217.800 125.941,219.605 125.220 C 221.409 124.499,224.975 123.126,227.529 122.168 C 230.082 121.211,232.884 120.080,233.756 119.655 C 234.628 119.230,236.054 118.701,236.926 118.480 C 237.797 118.258,238.582 117.985,238.669 117.873 C 238.756 117.760,239.683 117.415,240.729 117.105 C 243.502 116.284,259.659 111.105,262.439 110.146 C 263.746 109.695,265.244 109.271,265.768 109.203 C 266.291 109.134,269.465 108.285,272.821 107.315 C 290.501 102.204,313.063 96.630,327.575 93.789 C 331.777 92.966,343.207 90.967,343.709 90.967 C 344.347 90.967,343.219 89.067,339.662 84.152 C 323.930 62.411,298.342 50.028,253.249 42.336 C 248.629 41.548,243.994 40.827,242.948 40.734 C 241.902 40.640,240.333 40.427,239.461 40.259 C 235.071 39.415,220.839 37.073,219.176 36.921 C 217.070 36.729,214.296 36.243,212.837 35.809 C 212.314 35.654,211.030 35.451,209.984 35.357 C 208.938 35.264,207.013 34.977,205.705 34.721 C 203.540 34.295,199.722 33.557,192.393 32.147 C 190.911 31.862,189.556 31.540,189.382 31.433 C 189.208 31.325,188.710 31.188,188.276 31.128 C 187.843 31.069,187.058 30.831,186.533 30.599 C 185.245 30.032,184.455 29.765,183.559 29.594 C 181.691 29.238,178.447 27.026,178.447 26.108 C 178.447 25.075,177.926 25.544,177.861 26.635 M196.754 36.784 L 200.640 37.801 202.202 42.751 C 205.833 54.261,205.947 54.838,203.955 51.611 C 201.292 47.296,194.152 39.453,189.223 35.428 L 187.797 34.263 190.333 35.015 C 191.727 35.429,194.617 36.225,196.754 36.784 M213.154 40.370 C 218.035 41.321,223.480 42.349,225.254 42.654 L 228.480 43.208 225.748 44.775 C 220.284 47.908,213.781 52.729,210.959 55.739 L 210.031 56.728 208.217 51.264 C 207.219 48.259,205.688 44.119,204.814 42.064 C 203.602 39.213,203.350 38.364,203.752 38.483 C 204.042 38.569,208.273 39.418,213.154 40.370 M231.981 45.246 C 233.648 51.638,234.017 54.289,234.048 60.115 C 234.078 65.907,234.452 65.503,230.251 64.213 C 228.343 63.628,223.930 62.333,220.444 61.337 C 216.957 60.341,213.917 59.422,213.688 59.295 C 212.943 58.883,220.585 52.025,228.309 46.174 C 231.575 43.700,231.578 43.699,231.981 45.246 M257.668 48.368 C 261.599 49.162,264.850 49.847,264.893 49.890 C 264.936 49.934,262.726 51.004,259.982 52.268 C 253.922 55.061,247.724 58.445,242.271 61.939 L 238.193 64.552 237.830 60.228 C 237.397 55.064,236.710 51.501,235.446 47.861 C 234.931 46.379,234.436 44.934,234.344 44.650 C 234.153 44.058,244.492 45.706,257.668 48.368 M268.579 52.377 C 267.604 57.825,264.258 66.164,260.211 73.235 C 258.285 76.602,258.786 76.523,254.413 74.154 C 251.121 72.370,247.150 70.469,243.190 68.779 C 242.277 68.390,241.599 67.959,241.684 67.821 C 242.459 66.568,267.224 51.377,268.534 51.351 C 268.660 51.349,268.681 51.811,268.579 52.377 M278.487 53.381 C 288.901 56.366,305.927 62.761,304.593 63.186 C 304.333 63.269,301.179 64.067,297.585 64.959 C 286.977 67.591,275.028 71.416,266.049 75.053 L 264.427 75.710 265.928 72.166 C 268.627 65.795,270.623 58.755,271.181 53.645 C 271.448 51.200,270.939 51.218,278.487 53.381 M216.315 66.242 C 220.033 67.201,228.535 69.879,229.555 70.413 C 230.024 70.658,229.738 71.020,227.653 72.815 C 223.731 76.191,219.430 80.106,215.927 83.490 C 214.138 85.218,212.629 86.573,212.572 86.501 C 212.516 86.429,212.589 84.873,212.733 83.043 C 213.061 78.892,212.531 68.880,211.832 66.006 C 211.605 65.073,211.826 65.085,216.315 66.242 M305.704 68.380 C 303.096 72.308,284.837 95.862,282.601 98.182 L 281.910 98.900 279.650 95.805 C 275.984 90.783,271.982 86.583,266.617 82.128 L 264.943 80.737 266.307 80.114 C 275.567 75.882,306.683 64.810,307.419 65.486 C 307.490 65.551,306.718 66.853,305.704 68.380 M315.372 68.712 C 324.456 74.307,342.131 89.379,339.615 89.383 C 332.130 89.396,308.410 93.108,292.113 96.816 C 286.237 98.153,286.350 98.172,288.599 96.231 C 296.068 89.782,303.601 79.869,308.751 69.713 C 310.568 66.129,310.704 65.951,311.356 66.297 C 311.735 66.497,313.542 67.584,315.372 68.712 M245.350 77.439 C 248.881 79.215,251.819 80.814,251.878 80.991 C 251.937 81.169,250.737 81.929,249.210 82.681 C 245.326 84.592,238.276 88.444,233.679 91.164 C 231.542 92.429,229.794 93.398,229.794 93.318 C 229.794 93.237,230.376 92.013,231.088 90.597 C 233.307 86.184,235.055 81.337,236.749 74.900 C 237.184 73.246,236.765 73.122,245.350 77.439 M231.411 78.387 C 229.550 84.649,223.614 97.623,222.611 97.623 C 222.521 97.623,221.498 96.755,220.337 95.695 C 219.175 94.635,217.099 93.106,215.722 92.297 L 213.219 90.827 215.088 89.123 C 221.400 83.370,231.952 74.635,232.240 74.924 C 232.325 75.009,231.952 76.567,231.411 78.387 M261.269 86.579 C 266.814 90.299,277.973 99.325,277.971 100.090 C 277.971 100.215,275.225 101.086,271.870 102.027 C 260.526 105.206,242.650 111.016,234.020 114.327 C 233.729 114.439,236.479 111.546,240.131 107.899 C 246.910 101.129,251.990 95.212,256.493 88.839 C 257.884 86.871,259.085 85.261,259.163 85.261 C 259.242 85.261,260.189 85.854,261.269 86.579 M251.347 87.297 C 251.347 87.996,240.025 102.748,233.150 111.005 L 229.002 115.988 228.761 113.382 C 228.457 110.088,227.562 106.600,226.299 103.786 L 225.314 101.590 226.116 100.954 C 228.190 99.306,251.347 86.771,251.347 87.297 M215.274 99.891 C 217.719 101.539,217.745 101.382,214.650 103.670 C 213.136 104.789,209.992 107.171,207.662 108.963 C 205.333 110.756,203.476 112.109,203.536 111.972 C 203.596 111.835,204.452 110.297,205.439 108.555 C 206.892 105.989,209.110 100.915,210.264 97.514 C 210.486 96.860,211.467 97.326,215.274 99.891 M222.850 107.686 C 224.804 110.820,226.794 116.667,226.103 117.244 C 225.954 117.368,224.049 118.157,221.870 118.998 C 214.939 121.671,205.708 125.527,200.555 127.901 C 197.809 129.166,195.563 130.171,195.563 130.134 C 195.563 130.098,197.285 128.735,199.391 127.107 C 207.007 121.216,213.719 114.893,219.173 108.473 C 221.809 105.370,221.453 105.446,222.850 107.686 M214.708 108.473 C 208.391 115.878,201.099 122.359,192.684 128.050 L 188.748 130.711 190.808 128.413 C 191.941 127.149,194.152 124.556,195.721 122.651 C 198.799 118.912,199.146 118.630,208.849 111.982 C 215.312 107.554,215.681 107.333,214.708 108.473 " stroke="none" fill="#d42823" fill-rule="evenodd"></path><path id="path2" d="M117.249 214.049 C 115.426 215.013,114.748 216.240,114.517 218.996 L 114.330 221.236 113.108 221.236 C 111.894 221.236,111.886 221.244,111.886 222.504 L 111.886 223.772 113.154 223.772 L 114.422 223.772 114.422 230.586 L 114.422 237.401 115.848 237.401 L 117.274 237.401 117.274 230.586 L 117.274 223.772 119.176 223.772 L 121.078 223.772 121.078 222.504 L 121.078 221.236 119.176 221.236 L 117.274 221.236 117.274 219.800 C 117.274 216.847,118.397 215.572,120.630 215.991 L 121.712 216.194 121.712 214.948 C 121.712 213.110,119.766 212.718,117.249 214.049 M33.034 214.440 C 31.634 215.420,32.342 217.512,34.073 217.512 C 35.725 217.512,36.464 215.581,35.237 214.471 C 34.513 213.816,33.936 213.808,33.034 214.440 M250.079 214.739 C 250.079 215.055,250.396 215.214,251.030 215.214 L 251.981 215.214 251.981 218.067 C 251.981 220.391,252.069 220.919,252.456 220.919 C 252.844 220.919,252.932 220.391,252.932 218.067 L 252.932 215.214 253.883 215.214 C 254.517 215.214,254.834 215.055,254.834 214.739 C 254.834 214.358,254.358 214.263,252.456 214.263 C 250.555 214.263,250.079 214.358,250.079 214.739 M255.468 217.591 C 255.468 220.338,255.551 220.919,255.943 220.919 C 256.321 220.919,256.420 220.449,256.426 218.621 L 256.435 216.323 257.457 218.615 C 258.718 221.442,258.941 221.456,260.163 218.780 L 261.139 216.640 261.156 218.780 C 261.169 220.463,261.274 220.919,261.648 220.919 C 262.041 220.919,262.124 220.338,262.124 217.591 C 262.124 214.474,262.083 214.263,261.490 214.263 C 261.141 214.263,260.856 214.396,260.856 214.558 C 260.856 214.720,260.404 215.825,259.852 217.014 L 258.848 219.176 258.277 217.908 C 257.964 217.211,257.489 216.105,257.224 215.452 C 256.191 212.913,255.468 213.794,255.468 217.591 M4.754 226.149 L 4.754 237.401 6.211 237.401 L 7.667 237.401 7.558 228.592 L 7.448 219.783 10.017 225.502 C 11.430 228.647,12.978 232.076,13.457 233.122 C 13.937 234.168,14.547 235.566,14.813 236.229 C 15.218 237.238,15.428 237.419,16.106 237.339 C 16.850 237.250,21.516 227.661,24.248 220.602 C 24.627 219.626,24.681 220.564,24.700 228.447 L 24.723 237.401 26.149 237.401 L 27.575 237.401 27.575 226.133 L 27.575 214.865 25.774 214.960 L 23.972 215.055 21.678 220.127 C 17.562 229.226,16.823 230.890,16.473 231.843 C 16.134 232.768,16.106 232.731,14.764 229.625 C 12.582 224.573,10.288 219.346,9.239 217.036 L 8.267 214.897 6.511 214.897 L 4.754 214.897 4.754 226.149 M125.753 217.167 C 124.937 217.465,124.881 217.605,124.881 219.343 L 124.881 221.200 123.534 221.297 C 122.227 221.392,122.184 221.429,122.089 222.583 L 121.990 223.772 123.436 223.772 L 124.881 223.772 124.881 228.995 C 124.881 236.261,125.586 237.728,129.071 237.714 C 131.122 237.705,131.537 237.439,131.537 236.135 L 131.537 234.943 130.154 235.099 C 127.935 235.349,127.734 234.822,127.734 228.773 L 127.734 223.772 129.635 223.772 L 131.537 223.772 131.537 222.504 L 131.537 221.236 129.635 221.236 L 127.734 221.236 127.734 219.017 C 127.734 216.593,127.618 216.486,125.753 217.167 M135.435 218.669 C 133.117 220.125,132.714 223.827,134.662 225.775 C 136.952 228.066,141.487 226.844,142.331 223.708 C 143.386 219.791,138.884 216.502,135.435 218.669 M140.555 219.965 C 141.984 221.394,141.954 223.644,140.485 225.113 C 137.550 228.048,132.780 224.728,134.595 221.012 C 135.777 218.593,138.674 218.084,140.555 219.965 M135.975 222.504 C 135.975 225.145,136.022 225.357,136.609 225.357 C 137.122 225.357,137.242 225.145,137.242 224.247 C 137.242 223.637,137.387 223.138,137.565 223.138 C 137.742 223.138,138.125 223.637,138.416 224.247 C 138.733 224.913,139.175 225.357,139.520 225.357 C 140.223 225.357,140.228 225.264,139.583 224.019 C 139.112 223.108,139.112 222.960,139.583 222.163 C 140.561 220.508,139.863 219.651,137.537 219.651 L 135.975 219.651 135.975 222.504 M138.725 221.110 C 138.922 221.623,138.365 222.173,137.639 222.182 C 137.421 222.185,137.242 221.830,137.242 221.395 C 137.242 220.475,138.396 220.253,138.725 221.110 M44.611 221.301 C 38.862 222.827,37.194 232.555,42.054 236.215 C 45.344 238.693,51.347 238.095,51.347 235.290 C 51.347 233.702,51.372 233.715,50.008 234.547 C 46.100 236.930,42.022 234.096,42.218 229.135 C 42.405 224.442,45.857 222.199,50.000 224.080 L 51.347 224.692 51.347 223.160 L 51.347 221.628 49.939 221.274 C 48.270 220.854,46.256 220.864,44.611 221.301 M60.327 221.267 C 59.775 221.427,58.955 221.995,58.505 222.531 L 57.686 223.503 57.686 222.370 C 57.686 221.237,57.684 221.236,56.260 221.236 L 54.834 221.236 54.834 229.319 L 54.834 237.401 56.260 237.401 L 57.686 237.401 57.686 232.319 C 57.686 225.299,58.560 223.536,61.886 223.853 L 63.391 223.996 63.391 222.653 C 63.391 220.945,62.630 220.600,60.327 221.267 M69.729 221.196 C 61.211 223.989,62.549 237.076,71.411 237.645 C 77.713 238.049,81.419 232.565,79.408 225.810 C 78.321 222.159,73.622 219.920,69.729 221.196 M85.581 221.424 C 80.864 223.470,81.447 227.898,86.791 230.605 C 89.277 231.864,89.907 232.692,89.398 234.030 C 88.889 235.370,86.124 235.635,83.994 234.548 C 82.341 233.705,82.360 233.694,82.471 235.420 C 82.679 238.671,89.303 238.640,91.740 235.377 C 93.570 232.925,92.374 230.357,88.404 228.215 C 85.959 226.895,85.728 226.688,85.635 225.719 C 85.436 223.644,88.041 222.677,90.448 223.932 C 91.781 224.627,91.918 224.544,91.918 223.030 C 91.918 221.040,88.477 220.168,85.581 221.424 M99.749 221.411 C 93.024 223.563,93.074 235.336,99.817 237.356 C 106.619 239.394,112.002 233.806,110.167 226.613 C 108.987 221.991,104.671 219.836,99.749 221.411 M32.647 229.319 L 32.647 237.401 34.073 237.401 L 35.499 237.401 35.499 229.319 L 35.499 221.236 34.073 221.236 L 32.647 221.236 32.647 229.319 M74.744 224.098 C 77.941 226.048,77.765 233.011,74.476 234.712 C 70.813 236.606,67.155 233.931,67.155 229.358 C 67.155 224.594,71.088 221.869,74.744 224.098 M105.534 224.285 C 108.520 226.798,108.316 232.809,105.181 234.680 C 100.086 237.722,95.202 230.271,98.913 225.118 C 100.233 223.285,103.811 222.835,105.534 224.285 M391.918 260.766 C 388.844 261.513,387.554 265.907,389.740 268.188 C 392.169 270.724,396.527 269.814,397.500 266.568 C 398.570 262.996,395.571 259.879,391.918 260.766 M395.940 262.722 C 397.042 263.956,397.175 266.066,396.224 267.239 C 395.890 267.651,395.559 267.916,395.489 267.829 C 394.420 266.511,394.083 265.380,394.652 265.024 C 396.241 264.033,394.812 262.124,392.481 262.124 L 391.125 262.124 391.125 265.135 C 391.125 267.934,391.170 268.146,391.759 268.146 C 392.287 268.146,392.393 267.934,392.393 266.888 C 392.393 265.352,392.986 265.422,393.762 267.050 C 394.053 267.660,394.533 268.157,394.844 268.172 C 395.198 268.188,395.040 268.357,394.413 268.632 C 392.020 269.682,389.540 267.816,389.540 264.965 C 389.540 261.724,393.735 260.254,395.940 262.722 M393.921 263.946 C 394.003 264.527,393.871 264.659,393.207 264.659 C 392.544 264.659,392.393 264.508,392.393 263.845 C 392.393 262.761,393.765 262.852,393.921 263.946 " stroke="none" fill="#1c1c1c" fill-rule="evenodd"></path><path id="path3" d="M17.908 243.333 C 6.073 244.969,-0.944 256.413,3.859 266.244 C 5.831 270.280,9.943 273.796,20.172 280.190 C 29.221 285.848,31.789 292.891,26.628 297.900 C 22.613 301.796,15.306 301.750,6.967 297.777 C 2.331 295.569,2.669 295.462,2.423 299.217 C 2.033 305.160,1.971 305.075,7.765 306.597 C 24.931 311.106,38.163 303.679,37.304 290.016 C 36.907 283.698,33.929 279.745,25.357 274.161 C 23.526 272.969,20.748 271.164,19.182 270.149 C 13.196 266.270,10.603 263.063,10.641 259.588 C 10.738 250.717,21.317 247.383,32.817 252.597 L 34.865 253.526 34.865 249.318 C 34.865 244.370,35.213 244.780,30.137 243.745 C 27.165 243.140,20.845 242.926,17.908 243.333 M67.987 243.438 C 52.349 245.855,43.346 257.413,43.310 275.119 C 43.274 292.875,50.933 303.735,65.924 307.185 C 70.931 308.337,71.385 308.500,72.858 309.665 C 73.665 310.304,76.537 313.414,79.239 316.574 L 84.152 322.321 89.620 322.333 C 92.627 322.340,95.087 322.236,95.087 322.103 C 95.087 321.970,93.223 320.009,90.945 317.745 C 79.991 306.862,80.162 307.192,84.698 305.682 C 105.443 298.773,109.091 260.484,90.234 247.579 C 84.996 243.994,75.647 242.254,67.987 243.438 M177.667 243.459 C 165.662 245.208,158.614 256.460,163.418 266.208 C 165.552 270.539,168.820 273.351,179.971 280.456 C 187.726 285.397,190.528 290.679,188.010 295.615 C 184.796 301.914,176.523 302.650,165.799 297.591 C 161.825 295.717,162.146 295.447,162.021 300.770 L 161.919 305.134 165.424 306.158 C 184.516 311.738,198.710 303.886,196.815 288.793 C 196.193 283.840,192.740 279.372,186.212 275.074 C 184.469 273.926,181.189 271.772,178.922 270.287 C 172.260 265.922,169.975 262.971,170.283 259.131 C 170.976 250.497,181.017 247.659,192.656 252.806 C 193.601 253.224,194.427 253.566,194.493 253.566 C 194.558 253.566,194.612 251.656,194.612 249.322 L 194.612 245.077 192.155 244.417 C 187.438 243.148,182.185 242.800,177.667 243.459 M111.886 275.119 L 111.886 306.498 128.526 306.498 L 145.166 306.498 145.166 302.694 L 145.166 298.891 132.488 298.891 L 119.810 298.891 119.810 271.315 L 119.810 243.740 115.848 243.740 L 111.886 243.740 111.886 275.119 M78.384 250.585 C 88.730 252.881,94.220 261.626,94.201 275.778 C 94.179 290.955,86.885 299.745,73.534 300.681 C 62.150 301.479,53.167 292.924,51.644 279.834 C 49.378 260.357,61.697 246.882,78.384 250.585 M333.782 260.887 C 326.057 262.070,319.323 268.560,317.038 277.021 C 316.253 279.927,316.261 289.575,317.051 292.552 C 320.622 306.009,335.628 311.543,350.506 304.891 L 352.773 303.877 352.773 300.275 C 352.773 298.293,352.720 296.672,352.656 296.672 C 352.591 296.672,351.058 297.377,349.248 298.238 C 336.111 304.494,326.882 300.575,324.100 287.559 L 323.880 286.529 339.635 286.529 L 355.390 286.529 355.224 281.220 C 354.762 266.454,346.790 258.894,333.782 260.887 M217.433 261.355 C 205.763 264.420,199.129 277.925,202.305 292.152 C 205.342 305.754,220.314 311.637,235.423 305.165 L 237.876 304.114 237.966 300.407 L 238.055 296.701 234.796 298.253 C 221.899 304.393,212.124 300.689,209.711 288.748 L 209.295 286.688 224.933 286.606 L 240.571 286.523 240.571 282.117 C 240.571 266.505,230.892 257.820,217.433 261.355 M264.368 261.676 C 261.555 262.433,258.666 264.810,257.109 267.651 C 256.579 268.617,256.576 268.608,256.487 265.372 L 256.396 262.124 252.287 262.124 L 248.177 262.124 248.177 284.311 L 248.177 306.498 252.298 306.498 L 256.418 306.498 256.418 293.561 C 256.418 279.573,256.552 278.028,258.029 274.916 C 260.600 269.502,265.014 267.154,269.860 268.625 C 270.716 268.884,271.536 269.097,271.683 269.097 C 271.829 269.097,271.949 267.314,271.949 265.135 L 271.949 261.173 269.017 261.194 C 267.405 261.205,265.313 261.422,264.368 261.676 M378.855 261.633 C 375.908 262.553,374.084 264.031,371.992 267.191 L 370.840 268.930 370.840 265.368 L 370.840 261.807 366.878 261.807 L 362.916 261.807 362.916 284.152 L 362.916 306.498 366.839 306.498 L 370.761 306.498 370.930 293.106 C 371.108 278.966,371.222 277.782,372.705 274.720 C 375.284 269.391,379.191 267.234,384.024 268.470 C 385.370 268.815,386.521 269.097,386.580 269.097 C 386.639 269.097,386.688 267.314,386.688 265.135 L 386.688 261.173 383.439 261.194 C 381.652 261.206,379.589 261.403,378.855 261.633 M274.168 262.072 C 274.168 262.726,284.222 289.821,289.389 303.090 L 290.716 306.498 294.623 306.498 L 298.530 306.498 307.158 284.865 C 311.904 272.968,315.853 262.912,315.934 262.520 C 316.079 261.810,316.059 261.807,312.111 261.807 L 308.142 261.807 307.664 263.154 C 302.558 277.553,294.989 297.051,294.703 296.540 C 294.195 295.633,289.630 282.909,286.050 272.425 L 282.480 261.965 278.324 261.877 C 276.020 261.828,274.168 261.915,274.168 262.072 M339.795 268.150 C 343.645 269.187,346.451 273.131,347.515 279.002 L 347.731 280.190 336.147 280.190 C 329.777 280.190,324.564 280.134,324.564 280.065 C 324.564 279.480,326.090 275.226,326.818 273.784 C 329.285 268.891,334.361 266.687,339.795 268.150 M225.107 268.261 C 229.121 269.469,231.897 273.288,232.800 278.843 L 233.019 280.190 221.539 280.190 L 210.060 280.190 210.230 279.160 C 211.549 271.205,218.345 266.226,225.107 268.261 " stroke="none" fill="#040404" fill-rule="evenodd"></path><path id="path4" d="M178.535 24.802 C 177.914 25.605,177.704 26.095,178.081 25.862 C 178.294 25.731,178.447 25.829,178.447 26.097 C 178.447 26.551,180.471 28.536,180.914 28.516 C 181.039 28.511,180.749 28.213,180.269 27.856 C 179.548 27.318,179.398 26.964,179.398 25.806 C 179.398 24.401,179.107 24.063,178.535 24.802 M168.225 149.468 C 167.040 150.111,167.112 150.379,168.304 149.762 C 168.827 149.492,169.255 149.203,169.255 149.120 C 169.255 148.916,169.221 148.928,168.225 149.468 M157.418 156.206 C 157.129 156.526,156.964 156.882,157.052 156.999 C 157.139 157.115,157.121 157.145,157.011 157.064 C 156.638 156.789,153.035 160.523,150.753 163.550 C 143.982 172.531,142.816 180.268,147.099 187.797 C 150.992 194.642,160.864 202.501,171.297 207.060 C 177.188 209.635,190.539 214.150,191.147 213.774 C 191.285 213.689,191.488 213.764,191.597 213.941 C 191.707 214.118,192.029 214.263,192.314 214.263 C 192.778 214.263,192.780 214.222,192.341 213.867 C 191.724 213.368,189.435 209.545,189.435 209.014 C 189.435 208.796,189.239 208.693,189.000 208.785 C 188.761 208.877,188.322 208.734,188.023 208.468 C 187.724 208.202,185.840 207.372,183.835 206.623 C 177.965 204.432,169.462 199.943,170.101 199.373 C 170.246 199.243,172.647 198.526,175.436 197.779 C 178.225 197.032,180.650 196.336,180.824 196.234 C 180.998 196.132,181.236 196.046,181.352 196.043 C 181.469 196.040,181.683 195.908,181.828 195.750 C 181.979 195.584,181.935 195.551,181.723 195.672 C 181.497 195.802,181.128 195.406,180.772 194.654 L 180.190 193.425 175.753 194.996 C 168.093 197.707,166.403 198.111,166.403 197.233 C 166.403 196.950,169.255 193.002,172.001 189.484 C 173.454 187.623,174.643 185.999,174.643 185.874 C 174.643 185.750,174.893 185.459,175.198 185.227 C 175.544 184.964,175.602 184.802,175.352 184.796 C 174.781 184.782,173.710 182.901,173.924 182.288 C 174.307 181.190,169.968 187.137,166.261 192.790 L 164.442 195.564 163.600 194.963 C 158.535 191.350,152.538 182.757,151.472 177.584 C 150.977 175.185,150.017 175.706,158.637 173.703 C 162.647 172.771,166.099 171.876,166.309 171.714 C 166.520 171.552,166.853 171.519,167.051 171.641 C 167.249 171.764,167.028 171.285,166.560 170.578 C 166.092 169.870,165.802 169.141,165.916 168.956 C 166.030 168.772,165.980 168.621,165.806 168.621 C 165.632 168.621,165.399 168.766,165.290 168.943 C 165.180 169.121,164.958 169.183,164.796 169.083 C 164.634 168.983,164.501 169.060,164.501 169.255 C 164.501 169.450,164.368 169.528,164.206 169.428 C 164.044 169.327,161.137 170.032,157.745 170.994 C 150.464 173.058,151.087 172.988,151.355 171.712 C 152.130 168.020,156.916 159.648,159.418 157.606 C 159.849 157.255,159.844 157.230,159.375 157.393 C 158.869 157.568,157.929 156.446,158.094 155.864 C 158.205 155.474,157.975 155.590,157.418 156.206 " stroke="none" fill="#bc8c8c" fill-rule="evenodd"></path></g></svg>